<?xml version="1.0" encoding="UTF-8"?><svg id="a" xmlns="http://www.w3.org/2000/svg" viewBox="0 0 1080 426"><defs><style>.b{stroke:#fff;}.b,.c{fill:none;stroke-linecap:round;stroke-linejoin:round;stroke-width:64px;}.d{stroke:#ff5000;stroke-miterlimit:10;stroke-width:3px;}.d,.e{fill:#ff5000;}.e,.f,.g{stroke-width:0px;}.f{fill:#7fff7f;}.c{stroke:#f7931e;}.g{fill:#ffcd15;}</style></defs><path class="c" d="M209.04,316.93c-1.13,2.48-2.45,3.97-4.41,4.38-.98.2-2.24.05-3.57-.49-12.22-4.84-39.81-14.9-51.08-19.12-1.34-.54-2.83-1.87-3.2-3.63-.2-.98-.01-2.04.73-3.42l10.92-20.41c-8.83,7.73-16.83,14.48-20.35,17.24l-1.05.83,8.64,33.14c.48,2.35-.68,4.63-3.03,5.11l-38.74,10.19c-2.15.44-4.44-.72-5.11-3.03l-41.07-158.38-.08-.39c-.4-1.96,1-4.08,2.92-4.68l38.78-10,.39-.08c2.15-.44,4.08,1,4.72,3.11l21.39,82.38c6.75-7.92,35.3-39.91,43.92-41.68,1.57-.32,3.49.1,5.58,2.33l21.69,23.11c1.03,1.01,1.66,2.11,1.9,3.29.4,1.96-.41,3.96-2.52,5.62-4.42,3.36-14.34,11.72-24.77,20.6,14.6,1.5,47.5,16.59,48.99,23.84.24,1.17.09,2.43-.57,4.2l-11.01,25.94Z"/><path class="c" d="M333.47,288.24c-1.71,3.45-3.66,5.3-6.26,5.37-2,.05-16.08-2.77-26.33-11.9-10.25,5.67-20.98,8.36-31.18,8.63-33.39.89-62.86-23.94-63.71-56.12-.64-23.99,15.43-59.03,55.02-60.08,10-.27,19.85,1.67,27.74,4.86,1.16-1.43,2.95-2.08,5.34-2.14l1-.03,34.67,2.08c5.21.26,6.68,2.82,6.74,5.22l.03,1c-2.31,18.27-4.65,35.74-4.3,48.93.32,12,2.75,20.53,9.23,23.76,2.03.95,4.26,2.09,4.31,4.09.01.4-.17,1-.55,1.82l-11.75,24.52ZM284.8,233.71c-.14-5.2-.08-10.6.16-16.61-2.51-3.93-7.98-6.59-13.78-6.44-12.6.34-19.27,12.72-19,22.91.3,11.2,8.35,20.58,21.35,20.24,3.8-.1,8.18-1.02,12.72-3.14-.74-5.18-1.29-10.77-1.45-16.97Z"/><path class="c" d="M356.53,314.41c-4.38-.44-6.29-1.44-7.14-4.95l-6.41-23.97c-.14-.62-.28-1.23-.24-1.63.3-2.98,4.32-2.98,6.71-2.74,11.76.99,17.9-4.01,18.38-8.79.26-2.59-2-6.03-4.42-9.9l-4.77-6.51c-7.74-10.84-10.46-19.76-9.69-27.32,2.28-22.48,35.93-31.13,61.99-28.48,7.76.79,9.67,1.79,10.7,5.51l6.61,23.99c.32.84.26,1.43.2,2.03-.22,2.19-2.49,2.76-5.08,2.5l-.8-.08c-11.94-1.21-16.92,2.3-17.32,6.28-.34,3.38,2.26,7.47,8.97,16.59,8.14,10.88,11.21,20.24,10.45,27.8-2.38,23.48-39.29,32.6-65.96,29.89l-2.19-.22Z"/><path class="c" d="M510.22,295.04c-9.78,2.36-19.26,3.34-28.04,2.76-27.74-1.83-48.27-18.81-47.62-56.05.25-13.01,1.48-37.78,2.12-50.57.54-8.18,3.44-9.59,5.85-9.64.23-.39,31.3-.55,34.7-.32,3.99.26,5.46,2.36,5.5,4.77.32,13.45,0,24.25-.36,48.08-.33,17.22,5.26,23.6,13.64,24.15,3.99.26,8.87-.82,14.02-2.89l8.11-68.41c.36-2.38,2.46-3.85,4.65-3.7l39.57,4.81c2.4.16,3.86,2.26,3.7,4.65l-12.22,103.42c-.36,2.38-2.46,3.85-4.65,3.7l-38.97-4.77Z"/><path class="c" d="M630.07,325.54l-.4-.06c-1.98-.28-3.32-2.28-3.21-4.49l3.83-42.07c1.79-20.14-1.21-29.04-13.55-31.77l-6.43,72.4c-.33,2.38-2.16,3.94-4.37,3.83l-37.29-3.37-.4-.06c-1.98-.28-3.32-2.28-3.21-4.49l9.37-103.7.06-.4c.3-2.18,2.11-3.54,4.12-3.47l11.97,1.06c10.57-1.96,20.7-2.17,30.2-.85,8.91,1.24,17.04,3.78,24.35,7.83,13.34-2.99,25.72-3.49,36.82-1.95,34.86,4.85,57.36,30.39,54.53,66.75-1,12.99-.17,23,8.12,31.62,1.05,1.16,3.15,3.47,2.85,5.65-.14.99-.7,2.12-2.03,2.95-.06.4-19.12,14.1-19.12,14.1-2.45,1.68-4.35,2.22-6.33,1.95-2.77-.39-33.02-10.85-29.97-50.21,1.98-21.53-1.07-30.03-12.14-33.19l-6.27,71.21c-.33,2.38-2.16,3.94-4.37,3.84l-37.12-3.14Z"/><path class="c" d="M773.86,209.19c-16.39.44-29.94-12.41-30.37-28.6s12.41-29.94,28.8-30.38,29.74,12.41,30.18,28.81c.43,16.19-12.41,29.74-28.61,30.17ZM764.22,320.68h-.4c-2.2.07-3.85-1.69-4.1-3.88l-7.59-97.23c-.06-2.4,1.49-4.24,3.88-4.5l39.93-3.06h.4c2-.06,3.85,1.69,3.9,3.69l7.59,97.43v.4c.06,2-1.69,3.85-3.68,4.1l-39.93,3.06Z"/><path class="c" d="M845.25,335.73c-14,.37-25.49-10.53-25.86-24.32-.37-13.8,10.52-25.49,24.52-25.86,13.79-.37,25.29,10.73,25.66,24.53.37,13.79-10.53,25.29-24.33,25.66Z"/><path class="c" d="M844.82,355c1.14-2.68,4.11-3.93,6.29-3.66l.79.1c1.36.37,2.75.54,3.95.69,11.91,1.46,22.49-2.68,26.05-11.91,6.61-17.73,15.45-68.43,20.21-103.91.76-4.54,3.24-5.04,5.62-4.75.2.02,33.58,5.53,37.92,6.27,3.13.79,4.65,3.19,4.3,5.97-.17,1.39-13.05,80-22.56,108.26-10.97,31.9-37.37,40.15-60.79,37.27-10.32-1.27-20.18-4.69-27.88-9.27-2.06-1.26-2.36-3.72-2.15-5.5.07-.6.15-1.19.39-1.56l7.85-17.98ZM928.36,229.25c-16.28-2-27.77-16.71-25.8-32.79,2-16.28,16.71-27.77,32.99-25.77,16.08,1.97,27.57,16.68,25.57,32.96-1.97,16.08-16.68,27.57-32.76,25.6Z"/><path class="c" d="M959.36,334.84c-4.23-1.22-5.93-2.54-6.14-6.14l-2.03-24.73c-.03-.63-.05-1.26.06-1.65.83-2.88,4.79-2.16,7.09-1.49,11.39,3.08,18.33-.75,19.65-5.37.72-2.5-.89-6.29-2.59-10.53l-3.53-7.26c-5.69-12.05-6.76-21.31-4.66-28.61,6.26-21.72,40.91-24.22,66.08-16.96,7.49,2.16,9.19,3.48,9.54,7.33l2.22,24.78c.16.88,0,1.46-.17,2.03-.61,2.11-2.95,2.27-5.44,1.55l-.77-.22c-11.53-3.32-17.06-.75-18.17,3.09-.94,3.27.89,7.75,5.87,17.93,6.07,12.16,7.42,21.91,5.32,29.21-6.54,22.68-44.48,25.06-70.23,17.64l-2.11-.61Z"/><path class="c" d="M378.66,167.18c-.36-.29-.51-.59-.52-.84-.01-.45.48-.76.63-.92,2.38-2.91,3.56-5.74,3.49-8.34-.06-2.35-1.11-4.47-3.26-6.27-1.39,4.49-3.08,8.83-4.98,12.88-.29.56-.47,1.11-1.12,1.13-.1,0-.25-.04-.45-.09l-7.5-1.86c-.4-.14-.81-.33-.82-.83,0-.15.04-.35.14-.6,1.79-4.4,3.51-9.84,5.03-15.03-2.06-.5-4.37-.94-6.98-1.23-.55-.09-1.26-.32-1.27-.97,0-.1.04-.25.09-.4l2.25-6.21c.33-.91.57-1.31,1.27-1.33.15,0,3.86.3,7.13,1.02l1.23-4.88c.14-.6.37-1.06,1.17-1.08h.35s7.08,1.02,7.08,1.02c.9.08,1.32.62,1.33,1.32.02.65-.96,5.53-1.23,6.88,7.75,3.81,11.09,9.53,11.24,15.37s-2.57,11.12-7.22,15.34c-.24.26-.59.36-.94.37-.4,0-.75-.08-1.11-.37l-5-4.08ZM400.74,145.72c-.18.65-.57,1.01-1.12,1.03-.25,0-.3,0-13.78-5.16-.4-.14-.66-.53-.68-1.03,0-.15.04-.35.09-.55l1.72-5.3c.23-.66.48-.86,1.23-.88,3.1-.08,10.79,1.58,13.73,3.16.51.24,1.01.52,1.03,1.22,0,.2-.04.4-.09.6l-2.13,6.91Z"/><path class="c" d="M434.81,142.07c.27,2.89.44,5.79.52,8.69,1.04,1.72,1.75,3.86,1.81,6.36.08,3.35-.92,7.43-3.45,12.14-.62,1.07-1.07,1.23-7.42,1.39-1.9.05-2.05-.1-2.06-.4,0-.15.09-.3.14-.5.7-1.87,1.21-3.53,1.58-4.99-1.04.23-2.09.35-3.14.38-4.7.12-10.55-1.94-10.73-9.24s5.43-10.94,11.38-11.09h.35s-.27-2.9-.27-2.9l-15.76-.26c-.55.01-.96-.38-.97-.88l.05-8.1c-.01-.5.48-.91,1.03-.93l14.76.23-.45-4.14v-.2c-.02-.45.12-.85.92-.92l8.39-.71h.1c1-.03,1.16.47,2,6.1l11.26.17c.55-.01.96.43.97.98l-.1,8.01c.01.55-.43.96-.98.97l-9.91-.15ZM422.87,152.72c-1.15.03-2.13.8-2.1,1.9.02.75.66,2.23,2.11,2.2,1.8-.04,1.95-1.85,1.91-3.45-.61-.48-1.27-.67-1.92-.65Z"/><path class="c" d="M472.96,165.78c-.45-.14-.71-.43-.72-.78,0-.2.04-.45.18-.66.91-1.77,2.08-4.7,3.2-7.88-1.82-.75-3.64-1.41-5.45-1.97-.31,1.71-.72,3.27-1.18,4.63-1.87,5.1-6.26,7.91-10.45,8.01-6.45.16-9.49-5.61-9.63-10.96-.16-6.55,4.1-11.91,11.1-12.33l.65-.02c-.15-5.85-.3-5.99-1.5-5.96-.25,0-.55.06-.9.12-1.74.29-6.08.95-6.53.96-1,.02-1.16-.42-1.22-.87,0,0-.92-4.63-1.17-6.72v-.35c-.03-.75.22-1.01.71-1.07.75-.02,8.13-.95,13.42-1.53.5-.06,1-.08,1.45-.09,3.9-.1,5.79,1.41,5.87,4.81.04,1.5.13,3.1.17,4.85.05,2.15.06,4.5.02,6.8,2.62.58,5.28,1.32,7.86,2.21.42-1.26.74-2.37.92-3.17.14-.4.58-.67,1.13-.68.15,0,.35.04.55.09l7.67,2.81c.55.19,1.06.57,1.08,1.37.01.6-.4,2.11-1.05,4.18,3.25,1.87,4.01,2.45,4.04,3.45.03,1.15-3.18,8.98-5.03,9.03-.25,0-.5-.09-.71-.28-.77-.68-1.58-1.31-2.4-1.94-2.99,6.38-3.63,6.69-4.13,6.7-.2,0-.4-.04-.65-.13l-7.32-2.62ZM460.04,153.09c-1.7.19-2.77,1.12-2.73,2.67.04,1.7,1.09,1.72,1.29,1.72,1.6-.04,1.9-2.1,2.19-4.46-.25,0-.55.01-.75.07Z"/><path class="c" d="M550.7,169.62c-.58,1.09-1.23,1.41-2.07,1.31-3.52-.43-18.95-5.36-16.02-29.58.55-4.57,1.8-9.45,3.68-14.67.28-.62.57-1.39,1.81-1.24.15.02.29.09.44.1l8.36,2.12c.73.19,1.03.68.94,1.37-.02.15-.04.3-.1.44-1.27,3.83-2.53,8.41-3.07,12.88-1.04,8.59.43,16.87,8.71,19.18.63.18,1.19.6,1.12,1.19-.02.15-.09.29-.15.43l-3.65,6.46ZM552.28,139.04l-.4-.05c-.74-.09-1.11-.39-1.2-.95l-.64-4.31c-.02-.25-.05-.46-.03-.61.08-.64.55-.79,1.16-.82l3.99-.07.15.02c.74.09,1.21.85,1.28,1.51l.46,4.13c.03.16.01.3,0,.45-.07.6-.46.85-1.41.84l-3.36-.15ZM562.65,140.69c-.28.22-.59.28-.84.25-.35-.04-.62-.28-.88-.61l-2.98-4.09c-.21-.33-.28-.59-.26-.79.05-.4.38-.66.65-.78l2.98-1.71c.32-.16.58-.23.88-.2.4.05.77.29,1.08.63l2.79,3.21.14.12c.26.33.38.6.35.9s-.28.62-.66.88l-3.23,2.18Z"/><path class="c" d="M566.05,168.9c-.26-.33-.33-.64-.29-.94.07-.55.56-.89.77-.91,6.75-2.06,11.77-8.25,11.83-8.75,0-.05-.04-.1-.04-.1,0-.05-.09-.06-.14-.07-.15-.02-.29-.09-.44-.1-1.18-.24-6.03-1.33-7.36-1.59-.54-.12-1.18-.7-1.09-1.44.01-.1.07-.19.09-.29l1.49-4.81c.25-.83.78-1.01,1.42-.94l.35.04c2.84.7,11.08,2.55,13.14,3,2.17.41,3.95,1.94,3.63,4.57-.2,1.64-1.44,4.46-3.92,7.43,1.29,1.42,2.41,2.11,3.56,2.24s2.25-.28,3.57-1.18c.16-.08.47-.14.77-.11.55.07.59.12,2.33,2.85,1.27,2.02,1.52,2.45,1.46,2.9-.05.4-.24.78-.36.91-2.64,2.65-5.67,3.55-8.64,3.19-3.18-.38-6.33-2.22-9.06-5.02-4.33,2.9-8.11,3.76-8.75,3.68-.35-.04-.73-.19-1.04-.53l-3.24-4.02ZM589.99,151.6c-.27.57-.7.77-1.19.71-.15-.02-.4-.05-.58-.17-2.75-1.44-7.53-3.93-9.91-5.12-.38-.2-.59-.57-.53-1.07.02-.15.04-.35.17-.53l2.2-4.02c.31-.52.59-.68,1.18-.61.2.02,6.84,1.73,10.59,4.05.37.25.78.65.7,1.29-.02.15-.09.34-.17.53l-2.46,4.94Z"/><path class="c" d="M598.89,160.93c-.55-.07-1.18-.65-1.1-1.29l1.09-9.03c.07-.6.78-1.01,1.32-.95l33.7,4.12c.55.07,1.13.64,1.05,1.28l-1.08,8.99c-.07.6-.77.96-1.32.9l-33.66-4.01Z"/><path class="c" d="M636.75,176.48c-.31-.39-.37-.7-.33-1,.07-.55.56-.89.82-.96,9.09-2.73,15.86-11.18,15.96-12.08.05-.4,0-.45-10.85-2.72-.64-.13-1.26-.81-1.16-1.65l.03-.25,2.08-6.4c.26-.88.74-1.12,1.53-1.02l.4.05c3.77.91,14.74,3.44,17.5,4.03,2.76.53,4.95,2.41,4.54,5.74-.45,3.72-4.22,8.66-5.28,9.94,1.86,2.09,3.5,3.14,5.14,3.34s3.17-.42,4.98-1.62c.16-.08.47-.14.82-.1.3.04.63.18.8.45,3.98,6.22,4.03,6.28,3.96,6.82-.05.45-.25.83-.42.96-3.44,3.46-7.37,4.7-11.29,4.23-4.22-.51-8.45-3.03-12.07-6.85-5.6,3.86-10.75,5.2-11.69,5.09-.4-.05-.78-.24-1.09-.58l-4.38-5.41ZM668.13,153.48c-.27.57-.71.87-1.26.81-.2-.02-.44-.1-.68-.23-3.69-1.96-10.04-5.24-13.18-6.83-.38-.2-.64-.58-.57-1.13.02-.15.04-.35.16-.53l2.96-5.33c.32-.57.55-.79,1.29-.7.4.05,9.14,2.31,13.91,5.36.47.31.92.72.84,1.41-.02.2-.05.4-.18.63l-3.31,6.55Z"/><path class="c" d="M706.51,161.43c-.15,2.9-.4,5.8-.74,8.67.78,1.86,1.17,4.07.87,6.55-.4,3.33-1.98,7.22-5.17,11.51-.77.97-1.24,1.06-7.54.3-1.89-.23-2.02-.39-1.98-.69.02-.15.14-.29.21-.48.97-1.75,1.71-3.32,2.28-4.71-1.07.07-2.12.05-3.16-.08-4.67-.56-10.16-3.44-9.29-10.69s6.95-10.04,12.86-9.33l.35.04.15-2.9-15.56-2.53c-.55-.07-.9-.51-.84-1.01l1.22-8.01c.06-.5.6-.83,1.15-.77l14.57,2.36.15-4.16.02-.2c.05-.45.25-.83,1.05-.78l8.4.51h.1c.99.13,1.08.65,1.1,6.34l11.12,1.79c.55.07.89.56.82,1.11l-1.26,7.91c-.07.55-.56.89-1.11.82l-9.78-1.58ZM693.16,170.25c-1.14-.14-2.22.49-2.36,1.58-.09.74.33,2.31,1.77,2.48,1.79.22,2.2-1.55,2.39-3.14-.54-.57-1.16-.84-1.8-.92Z"/><path class="c" d="M91.62,176.79l2.72,3.63,1.96,9.34c1.13,5.11,2.68,11.81,3.51,14.87.88,3.05,3.14,11.6,5.1,19,1.38,5.34,3.03,11.45,4.2,15.75.34-.04.68-.07,1.02-.11-1.21-4.82-2.54-9.82-3.94-14.78-6.05-21.25-10.27-39.98-11.51-51.02-.9-7.6-1.96-24.18-1.84-28.87.05-2.57-.36-3.21-.71-1.08-.39,2.24.24,17.46,1,24.92,1.02,9.91,1,9.81-1.52,6.64-2.85-3.71-8.34-13.46-10.97-19.72-4.53-10.5-11.25-32.89-11.05-36.66.09-2.07.73-1.92,1.93.51,2.21,4.4,10.48,12.2,15.93,15.01,2.41,1.24,2.26,1.05-1.48-1.6-6.48-4.66-12.52-10.74-14.53-14.68-.69-1.25-.52-1.51,2.28-3.62,5.94-4.51,13.34-8.98,27.01-16.25,2.35-1.3,2.34-1.35.06,2.82-1.76,3.18-3.56,7.54-3.03,7.44.27-.05,1.06-1.38,1.79-3.02,2.36-5.19,7.88-13.23,11.95-17.38,7.97-8.03,19.62-17.07,26.31-20.34,1.41-.72,2.18-1.32,1.84-1.37-1.2-.15-7.78,3.66-13.01,7.53-7.02,5.23-16.49,13.83-19.75,18.09-2.16,2.82-3.45,3.91-6.37,5.43-12.66,6.51-26.73,15.42-30.64,19.25l-1.85,1.87,1.85,7.36c5.6,22.62,12.26,38.25,21.74,51.04Z"/><path class="c" d="M272.13,145.14c-2.98-11.64-12.1-32.95-19.6-45.85-4.49-7.78-12.74-18.26-17.35-22.18-7.94-6.7-19.31-13.29-26.42-15.21-7.99-2.19-22.14-2.89-30.64-1.48l-5.39.85,4.63-.47c8.45-.84,22.62-.26,28.98,1.25,9.44,2.18,22.59,9.91,30.82,18.06,2.84,2.83,8.08,9.62,12.43,16.15,5.78,8.69,16.4,32.26,20.46,45.41,4.8,15.5,8.99,40.01,8.78,51.28-.1,5.77-.28,10.36-.53,13.69.39-.09.77-.18,1.16-.28.55-7.35.43-16.91-.37-24.97-.64-6.32-4.72-27.69-6.97-36.24Z"/><path class="c" d="M145.34,64.09c3.49-1.47,7.2-2.37,20.02-4.97l15.76-3.18,7.3.39c8.26.47,16.77,1.9,23.28,3.88,10.78,3.36,23.23,10.06,29.77,16.16,1.37,1.28,2.68,2.3,2.95,2.25.71-.08-1.56-2.53-4.74-5.12-1.64-1.29-2.95-2.53-2.86-2.66.31-.4,10.75.42,18.12,1.41,9.94,1.36,18.82,3.82,19.12,5.32.08.43-.07.79-.28.83-.27.05-.31,1.23-.09,2.63,1,6.14-.04,19.4-2.33,30.25-1.01,4.7-.1,2.85,1.12-2.22,1.99-8.45,2.82-16.62,2.45-24.05-.13-2.92-.03-2.66,1.14,2.94,2.69,12.97,3.06,33.07.77,44.48-.79,3.88-1.66,6.5-2.1,6.2-.13-.09-1.52-4.03-3.07-8.73-3.34-10.12-5.67-16.27-6.9-18.25-1.45-2.27-1.43-1.05-.06,1.68,1.41,2.61,2.64,6.03,6.91,18.86,2.25,6.84,3.04,10.29,5.15,22.04,1.36,7.68,2.78,16.79,3.18,20.21.4,3.42,1.38,11.73,2.27,18.45.54,4.12,1.12,8.7,1.55,12.31.33-.1.66-.2,1-.29-.07-.54-.14-1.08-.21-1.64-1.05-8.35-2.53-19.45-3.17-24.66-.7-5.2-1.59-12.19-2.01-15.44-.38-3.31-1.4-9.56-2.28-14l-1.53-7.98,1.28-4.48c3.59-12.44,3.6-30.89-.13-49.66l-2.15-11.13-5.55-1.62c-6.76-1.88-15.88-3.3-26.29-3.95-6.31-.42-8.09-.73-9.93-1.86-2.21-1.34-11.09-5.47-15.67-7.28-9.65-3.81-24.6-6.07-36.05-5.52-4.39.26-26.16,4.58-31.39,6.23-4.02,1.3-9.3,3.57-8.91,3.82.14.14,2.21-.61,4.57-1.63Z"/><path class="c" d="M151.64,66.46c-1.43-.49-8.52,2.41-15,6.2-13.85,8.08-20.58,15.59-28.62,31.97-8.69,17.56-11.65,34.27-9.98,56.17,2.23,29.85,9.61,57.44,20.15,77.43.34-.04.68-.09,1.01-.13-3.9-7.21-6.26-13.18-11.03-27.35-2.53-7.45-5.98-23.43-7.17-33.04-3.31-27.02-3.08-39.35,1.21-54.98,2.45-8.93,3.86-12.77,7.25-19.22,6.04-11.59,11.06-18.2,18.08-23.71,7.2-5.71,17.64-11.39,23.03-12.52,1.75-.4,1.95-.55,1.06-.82Z"/><path class="c" d="M168.81,114.57c-15.43-7.44-25.66-17.58-30.02-29.72-.76-2.13-1.41-4.61-1.37-5.51.03-.95-.21-1.63-.48-1.57-.91.18-.53,3.5.72,6.97,1.27,3.31,1.28,3.36.06,5.32-5.41,8.58-12.9,27.13-16.55,40.97-1.22,4.52-1.53,5.19-2.76,5.44-1.5.3-2.24-.39-2.68-2.58-.37-1.87-1.33-1.4-4,1.96-1.68,2.17-2.78,3.05-4.01,3.3-2.41.48-3.27,1.43-2.21,2.33.46.35,1.31.74,1.88.79,1.03.13,1,.3-.04,2.9-.58,1.56-.8,2.99-.54,3.16.26.17,1.82-.36,3.43-1.18l2.93-1.47,1.67,1.39c.89.82,1.94,1.39,2.32,1.32.53-.11.6,1.05.31,4.38-1.37,15.5,1.45,30,7.04,36.34l1.42,1.55-1.98-.72c-7.11-2.76-11.53-6.55-16.41-14.08-1.27-1.92-1.69-2.33-1.49-1.37.37,2.15,6.65,9.96,10.09,12.5,3,2.24,3.29,2.57,4.31,6.04.62,1.99,2.2,6.34,3.46,9.6,1.26,3.25,2.68,7.08,3.25,8.53,1.63,4.39,7.1,14.92,12.43,24.36.3-.04.61-.07.91-.11-3.5-6.37-7.55-14.11-8.85-17.03l-.72-1.69,4.26,1.88c3.04,1.34,4.52,2.33,5.27,3.57,1.81,2.97,8.34,9.24,11.86,11.32.25.15.51.29.76.44.6-.07,1.2-.15,1.81-.22-1.4-.76-2.75-1.61-4.1-2.58-3.43-2.43-9.77-8.9-10.02-10.18-.08-.43-.42-.97-.75-1.24-.9-.6-16.45-28.03-16.14-28.42.12-.25,1.08-.16,2.07.09.95.31,1.93.51,2.09.47.16-.03-.68-1.2-1.85-2.58-3.54-4.13-5.15-7.76-6.52-14.94-4.21-21.23,2.02-51.7,16.2-79.13l3.29-6.38,1.07,2.01c.6,1.05,2.12,3.41,3.36,5.17,5.6,7.78,14.09,14.16,26.93,20.33,7.67,3.65,17.97,7.94,18.83,7.77.16-.03-.8-1.51-2.11-3.36-1.36-1.79-3.55-5.02-4.93-7.19-1.32-2.18-2.71-4.41-3.04-4.95-.38-.54,1.43.22,4.07,1.75,10.84,6.19,20.58,10.15,28.51,11.46.87.16,1.61.57,1.68.89.07.37.27.5.4.31.13-.19-1.14-2.11-2.79-4.28-1.7-2.11-3.09-4.11-3.16-4.43-.05-.27.75-.7,1.82-.92,1.71-.34,2.58.1,9.06,4.48,7.51,5.07,12.82,8.02,21.8,12.13,3.59,1.57,5.57,2.84,5.96,3.71,1.03,2.13,3.16,16.77,3.1,20.95-.11,4.47-.77,8.16-2.17,11.77l-1,2.53,2.55-2.01c1.39-1.11,3.15-2.63,3.89-3.38q1.34-1.38,1.17-.29c-.11.58-.51,3.32-.85,6.06-2.48,19.72-5.64,34.02-8.68,39.46-1.26,2.21-3.52,5.28-6.15,8.45.56-.15,1.12-.31,1.68-.46,1.69-2.08,3.15-4.01,4.04-5.4,1.33-1.99,4.11-8.15,4.51-9.79.18-.76,1.26-2.03,2.39-2.81,1.06-.82,2.85-2.45,3.94-3.67,1.09-1.22,2.12-2.2,2.25-2.11.74.49-.07,10.37-1.28,19.35.37-.1.74-.21,1.11-.31.76-5.83,1.32-12.04,1.32-15.76.04-8.46-.63-19.99-1.61-29.41-.72-6.97-.7-7.47.53-9.66,1.48-2.63,4.44-11.22,3.99-11.52-.19-.13-1.19,2.13-2.23,5-2.2,5.99-4.73,10.33-7.79,13.38-2.38,2.31-3.49,2.86-2.55,1.17,2.41-4.09,2.56-11.74.55-23.28-1.87-10.8-3.42-15.27-10.09-28.73-6.96-14.07-12.14-22.27-17.67-28.01-3.43-3.54-10.25-8.8-11.21-8.61-.32.06,1.02,1.24,3.01,2.57,8.19,5.71,14.32,13.61,22.65,29.57,5.06,9.56,10.2,21.43,9.7,22.25-.17.26-12.18-5.36-16.54-7.72-3.31-1.84-13.99-8.9-14.73-9.8-.59-.72-.38-.81,1.38-.89,1.15-.06,4.65.19,7.78.57,3.14.43,5.74.64,5.84.56.39-.58-9.41-2.02-13.06-1.97-2.27.06-4.2.11-4.21.06-.05.01-2.47-2.35-5.32-5.23-6.73-6.72-11.44-12.85-14.45-18.75-3.04-6.07-3.19-6.26-2.18-2.85,1.28,4.47,8.81,18.65,13.05,24.59,1.17,1.71,2.21,3.29,2.25,3.5.04.21-1.16.9-2.59,1.51-1.49.63-3.17,1.41-3.72,1.68-1.9,1.04-19.14-8.21-22.09-11.9-.8-.95-1.32-1.35-1.29-.91.27,1.34,6.09,11.35,8.94,15.34,1.45,1.99,2.62,3.7,2.66,3.86.13.64-7.35-2.6-18.6-8.04ZM135.95,214.79l2.7,4.36-1.73-.6c-3.76-1.31-6.82-3.54-7.77-5.57-1.76-3.82-7.71-19.53-8.06-21.3-.27-1.34-.12-1.7.52-1.6.47.13.96.64,1.08,1.23.21,1.07,8.34,15.41,13.27,23.49ZM116.49,143.35c.72,3.64.38,4.15-1.65,2.61l-1.83-1.36-2.45,1.38c-1.35.77-2.51,1.33-2.59,1.24-.13-.09.15-1.2.55-2.55l.79-2.44-1.35-.62c-2.01-.88-1.87-1.57.32-2.01,1.55-.31,2.36-.97,3.9-3.05,2.06-2.8,2.82-2.89,3.52-.48.33,1.1.66,1.37,1.73,1.16l1.34-.27-1.36,2.1c-1.06,1.66-1.28,2.53-.93,4.3ZM118.85,141.49c-.79,4.44-.96,4.69-1.55,2.25-.37-1.59-.24-2.62.38-3.69,1.39-2.22,1.76-1.79,1.17,1.43ZM255.51,163.89c.18.35.64,5.76,1.08,11.9.99,14.53.99,15.09-.84,17.34-1.99,2.56-6.19,6.06-5.95,5.02.92-4.07,3.31-18.61,4.24-25.96.63-4.96,1.27-8.7,1.47-8.29ZM205.03,110.33c-2.55-3.61-7.51-11.79-7.13-11.87.16-.03,1.1,1.06,2.13,2.36,1.05,1.35,3.87,4.4,6.35,6.8,2.42,2.41,4.16,4.45,3.79,4.53s-1.14.39-1.81.69c-1.01.53-1.4.22-3.33-2.51ZM205.66,114.32c.38-.02,1.98,1.55,3.57,3.41,1.6,1.91,2.75,3.51,2.54,3.55-.91.18-11.98-4.07-11.72-4.45.39-.58,4.47-2.39,5.62-2.5Z"/><path class="c" d="M140.12,126.6c-6.57,2.75-13.69,7.22-14.35,8.91-.1.35,1.09-.38,2.63-1.58,5.41-4.13,11.11-6.76,17.93-8.23,3.37-.67,6.92-1.26,7.83-1.16,1.4.06,1.27-.03-.67-.59-2.87-.76-7.43.08-13.37,2.65Z"/><path class="c" d="M150.42,144.62c.21.24.9.32,1.54.19s2.9.04,5.07.33c4.05.53,5.08.38,1.71-.34-2.83-.55-8.81-.7-8.32-.18Z"/><path class="c" d="M204.96,134.3c-2.99,1.76-4.76,3.17-4.38,3.43.13.09,1.48-.68,2.99-1.76,1.46-1.07,3.69-2.4,4.93-2.87,1.74-.74,1.88-.87.6-.62-.86.17-2.75.99-4.14,1.82Z"/><path class="c" d="M140,151.19c.32.49-.3,1.28-1.85,2.42-2.86,2.12-5.84,5.6-4.54,5.4.48-.1.92-.4.97-.69.19-1.26,5.79-5.82,7.99-6.53,4.17-1.38,10.49-2.3,12.69-1.85,1.22.26,2.15.19,2.25-.17.16-.31.49-.6.76-.65.32-.06.43.19.33.55-.15.36.29.89.95,1.15.67.31,1.42,1,1.63,1.51.45.86.34.88-2.51.5-4.22-.55-10.65-.17-13.35.76-1.2.4-3.13,1.57-4.27,2.57-2.98,2.65-6.74,8.9-7.61,12.63-.7,2.92-.69,3.81.4,8.2l1.16,4.99-1.75-.99c-.99-.53-2.07-.92-2.39-.86-.63.18,2.02,1.77,5.46,3.42,1.91.95,1.94.84.44-1.14-1.79-2.31-3.4-11-2.54-13.95.98-3.47,3.57-7.77,4.66-7.87.56,0,1.33-.87,1.84-1.92,1.35-2.99,4.48-4.89,8.52-5.25,3.77-.3,7.09.15,7.27,1.06.06.32-.54.38-1.66.05-.94-.26-2.03-.43-2.41-.36-.36.13.43.47,1.72.83,1.35.34,3.05,1.06,3.83,1.63,2.98,2.13,5.77,10.58,5.07,15.45-.26,1.77-.21,2.32.3,2.05,1.09-.66.98-5.14-.28-9.84-1.17-4.49-3.16-8.1-5.25-9.63-1.83-1.36-.62-1.71,2.73-.82,3.4.88,3.56.85,2.36-.69-.64-.71-.58-.94.16-1.14.75-.15.78-.27.1-.35-1.67-.28-3.7-1.82-3.33-2.51.24-.49-.34-.6-1.85-.36-1.25.14-3.88.33-5.86.44-1.99.06-5.12.52-7.04.95-1.9.49-3.91.72-4.5.56-.76-.18-.91-.1-.58.45Z"/><path class="c" d="M208.79,137.93c-1.5.58.29.33,4.89-.58,6.59-1.25,7.52-1.32,10.55-.59,6.06,1.41,8.44,2.77,12.04,6.89,1.86,2.08,4.15,5.23,5.12,7.04.96,1.75,2.47,3.79,3.34,4.51,1.4,1.17,1.56,1.41.86,1.83-1.34.82-2.39.86-2.11.03.33-.84-.82.33-2.76,2.88l-1.22,1.69v-1.95c.06-2.51.09-2.35-2.11-6.75-2.77-5.29-4.28-6.99-9.14-10.19-5.5-3.63-7.8-4.29-11.8-3.44l-3.09.67,3.04-.1c3.87-.1,8.34,1.4,10.25,3.47l1.49,1.65-2.11-1.41c-1.92-1.29-7.13-3.14-8.2-2.93-.21.04,1.19.65,3.1,1.33,5.62,2,8.35,4.85,9.98,10.25.89,3.1.9,3.71-.05,7.29-1.24,4.69-.75,5.48.71,1.08,1.89-5.6,1.45-10.07-1.56-14.86-.55-.83-.51-.9.35-.46,1.42.72,5.32,6.06,7.01,9.56,1.61,3.35,1.73,6.21.3,8.5-1.48,2.35-.01,1.61,2.36-1.25,2.32-2.85,4.87-4.58,7.55-5.11q1.28-.25-.75-1.52c-1.95-1.17-3.26-2.69-4.85-5.65-.61-1.1-.51-1.18.94-1.13l1.62.07-1.87-.74c-1.02-.35-2.94-1.92-4.25-3.49-1.3-1.52-2.84-3.1-3.37-3.55-.52-.4-.77-.79-.45-.86.27-.05.85-.5,1.31-.98.73-.81.61-.84-1-.3-1.47.46-2.32.35-4.24-.66-1.29-.63-3.58-1.51-5.14-1.81-1.52-.37-2.71-.8-2.6-1.04.17-.53-11.13,1.6-14.15,2.64Z"/><path class="c" d="M203.42,139.99c1.28.58,1.31.46-1.5,3.08-1.55,1.42-1.57,2.15-.1,1.46,1.01-.53,1.02-.48.61,1.66-.26,1.22-.44,2.26-.41,2.42.02.11.91-.74,2.01-1.9,1.2-1.24,2.38-2.03,2.89-1.96.63.1,1.06-.27,1.31-.98.21-.6,1.39-1.67,2.65-2.31s2.19-1.27,2.01-1.34c-.45-.3-5.46,2.47-7.15,4.03-2.03,1.79-1.98,1.78-2.17-.01-.08-.98.39-1.97,1.32-2.87,1.86-1.81,1.8-2.14-.61-1.94-1.75.13-1.85.2-.87.67Z"/><path class="c" d="M144.03,156.67c-2.21,1.77-3.21,3.14-2.14,2.93.27-.05.64-.41.75-.7.15-.36,1.22-1.41,2.46-2.43,1.25-.97,2.04-1.74,1.72-1.68-.27.05-1.54.92-2.79,1.89Z"/><path class="c" d="M149.46,154.59c.5.01,1.25-.14,1.6-.32.29-.22-.11-.26-1.02-.08-.86.17-1.16.34-.59.39Z"/><path class="c" d="M211.83,142.88c-.85.78-1.11,1.39-.7,1.53.36.15.62.04.57-.22-.04-.21.63-1.01,1.5-1.69.82-.61,1.17-1.12.74-1.04-.44.03-1.41.72-2.11,1.42Z"/><path class="c" d="M129.75,159.72c.05.27.61.55,1.3.69,1.11.28,1.1.5-.66,4.8-1.01,2.48-2.49,5.11-3.34,5.83-1.75,1.57-1.77,2.57,0,1.72.72-.31,1.3-.43,1.34-.27.19.96-1.35,4.94-2.52,6.61-1.64,2.38-1.6,2.87.32,2.44.84-.22,1.04-.37.47-.43-.56,0-1.03-.13-1.04-.18-.02-.11.63-1.29,1.48-2.63,1.38-2.28,2.44-5.65,2.19-6.88-.06-.32-.5-.29-.95-.03-.5.27-.33-.27.42-1.25,2.47-3.21,4.82-11.02,3.29-10.88-.27.05-.88.06-1.38.05-.56,0-.96.19-.92.4Z"/><path class="c" d="M148.43,161.46c-1.12,2.22-.07,6.35,1.97,7.67,3.02,2.07,5.82-2.6,3.83-6.48-1.81-3.53-4.36-4.03-5.79-1.18ZM152.57,161.59c.68.92,1.33,2.24,1.47,2.93.33,1.66-.72,3.92-1.9,4.16-1.98.39-3.96-4.55-2.8-7.11.79-1.88,1.8-1.86,3.23.03Z"/><path class="c" d="M215.42,148.67c-1.52,2.97.19,7.41,2.65,6.92,1.71-.34,2.33-1.69,2.05-4.52-.36-4.32-3.02-5.68-4.7-2.4ZM219,150.19c.35,1.76-.07,4.68-.71,4.81-1.66.33-3.04-3.84-2-6.16.8-1.83,2.21-1.16,2.71,1.35Z"/><path class="c" d="M205.49,150.7c-.05.57.12,3.14.46,5.69.48,3.52.93,5.26,2.03,7.16,1.36,2.4,5.32,5.78,6.49,5.55.32-.06.47.13.36.43-.52,1.32,7.96.64,9.95-.81,3.79-2.75,4.45-3.33,4.34-3.92-.07-.37-1.23.24-2.87,1.51-2.45,1.93-3.27,2.26-6.46,2.73-3.57.49-3.69.45-6.72-1.67-1.8-1.25-3.54-3.02-4.17-4.23-1.44-2.77-2.51-8.45-2.09-11.37.28-1.95.21-2.32-.38-2.2-.43.08-.82.61-.94,1.13Z"/><path class="c" d="M137.16,165.7c.07.65.43,3.03.82,5.23.78,4.23,1.66,5.84,5.11,8.94,1.7,1.55,6.85,3.14,8.71,2.72.59-.12-.37-.48-2.1-.81-3.92-.72-7.46-3.13-8.98-6.05-1.18-2.32-2.17-8.13-1.76-10.27.15-.64.09-.96-.14-.7-.17.26-.65.35-1.04.09-.49-.24-.66.02-.61.84Z"/><path class="c" d="M161.08,177.57c-.94,1.69-2.43,3.15-4.41,4.38-2.76,1.77-2.85,1.9-1.08,1.55,1.02-.2,2.9-.8,4.19-1.28,1.85-.76,1.99-.9.7-.69l-1.61.26,1.39-1.39c1.64-1.55,3.41-4.96,2.7-5.15-.25-.12-1.09.94-1.87,2.32Z"/><path class="c" d="M226.05,168.91c.13.64,1.29,1.19,1.59.74.09-.13-.21-.51-.77-.79-.57-.33-.89-.27-.82.05Z"/><path class="c" d="M188.35,182.94c.19.96.69,2.09,1.04,2.46.49.51.56,0,.18-1.87-.28-1.39-.71-2.47-1.03-2.41-.27.05-.38.91-.2,1.82Z"/><path class="c" d="M189.15,201.37c-1.67,1.94-2.04,3.46-1.09,4.61.51.62,1.28.86,2.23.61,1.11-.28,1.16-.34.31-.4-1.12-.06-2.08-.7-2.25-1.55-.05-.27.52-1.32,1.25-2.36,2-2.79,4.75-3.22,7.44-1.14,1.12.89,2.08,1.81,2.14,2.08s-.88.9-2.04,1.46l-2.18,1.04,2.31-.68c1.25-.42,2.47-.99,2.69-1.31.56-.83-1.45-3.38-3.27-4.13-2.01-.88-6.05.03-7.54,1.77Z"/><path class="c" d="M120.69,103.72c-.95,1.63-2.13,2.7-3.37,3.17-1.08.44-2.49,1.16-3.19,1.58l-1.23.8,2.13,1.47c1.93,1.34,2.09,1.59,1.82,3.31-.5,3.66.6,4.16,3.13,1.49l1.33-1.43,1.9,1.18c1.01.63,1.92,1.01,2.1.81.13-.19.11-1.69-.04-3.27-.27-2.78-.17-3.08,1.76-4.85,1.12-1.06,2.01-2.18,1.95-2.5-.05-.27-1.18-.32-2.51-.06l-2.41.48-.41-2.09c-.23-1.18-.66-2.2-.96-2.31-.25-.12-1.16.9-2,2.23ZM125.96,106.18l2.28-.29-1.98,1.78c-2.08,1.86-2.39,2.81-1.77,5.91l.37,1.87-1.68-1.17-1.67-1.11-1.67,1.67c-.88.9-1.75,1.57-1.87,1.48-.18-.08-.18-1.19-.04-2.44.17-2.2.14-2.36-1.6-3.3-1-.58-1.74-1.21-1.56-1.41.13-.19,1.38-.89,2.79-1.61,1.78-.85,2.92-1.8,3.56-3.04l.92-1.79.82,1.89c.78,1.68,1.02,1.8,3.09,1.55Z"/><path class="c" d="M256.97,78.79c.41.09.88-.06,1.01-.26.18-.2-.17-.3-.75-.13-.59.12-.72.31-.26.38Z"/><path class="c" d="M271.13,82.37c-2.93,7.36-6.85,13.64-11.19,18.12-.51.49-.11.3.81-.38,3.49-2.58,9.8-13.06,11.45-19.06.78-2.77.33-2.23-1.07,1.32Z"/><path class="c" d="M73.46,129.54c4.66,10.3,12.48,21.98,15.9,23.86.68.36.35-.18-.77-1.35-3.46-3.7-7.92-10.21-11.52-16.89-3.36-6.28-5.13-9.04-3.62-5.62Z"/><path class="c" d="M251.07,118.26c.12.59.31.72.38.26.09-.41-.06-.88-.26-1.01-.2-.18-.3.17-.13.75Z"/><path class="c" d="M270.81,351.39c-1.92,0-3.49-1.56-3.5-3.47l-.12-43.97c0-.93.35-1.81,1-2.47.66-.67,1.53-1.04,2.47-1.04,1.94,0,3.51,1.56,3.52,3.47l.12,43.97c.01,1.92-1.54,3.5-3.47,3.51h-.02ZM291.96,350.83c-1.21,0-2.37-.46-3.24-1.3-.9-.87-1.41-2.03-1.44-3.28s.44-2.44,1.3-3.34l7.67-8-7.99-7.66c-1.86-1.79-1.93-4.76-.14-6.62,0,0,.01-.01.02-.02.89-.91,2.08-1.42,3.36-1.42s2.37.46,3.24,1.3l11.37,10.9c.9.87,1.42,2.03,1.44,3.28.03,1.25-.44,2.44-1.3,3.34l-10.9,11.37c-.89.93-2.09,1.44-3.38,1.44ZM249.89,334.01c-1.23,0-2.39-.47-3.28-1.31l-11.67-11.11c-.92-.88-1.44-2.06-1.48-3.33-.03-1.27.43-2.48,1.31-3.4l11.11-11.67c.89-.94,2.15-1.48,3.45-1.48,1.23,0,2.39.47,3.28,1.31.92.88,1.44,2.06,1.48,3.33.03,1.27-.43,2.48-1.31,3.4l-7.83,8.23,8.23,7.82c.92.88,1.44,2.06,1.48,3.33.03,1.27-.43,2.48-1.31,3.4-.89.94-2.15,1.48-3.45,1.48h0Z"/><path class="c" d="M270.68,301.93c1.1,0,1.99.88,2,1.98l.12,43.97c0,1.1-.88,2-1.98,2.01,0,0,0,0-.01,0-1.1,0-1.99-.88-2-1.98l-.12-43.97c0-1.1.88-2,1.98-2.01,0,0,0,0,.01,0M249.33,303.22c.81,0,1.62.3,2.25.9,1.3,1.24,1.35,3.3.11,4.61l-8.86,9.31,9.31,8.85c1.3,1.24,1.35,3.3.11,4.61-.64.67-1.5,1.01-2.36,1.01-.81,0-1.62-.3-2.25-.9l-11.67-11.11c-1.3-1.24-1.35-3.3-.11-4.61l11.11-11.67c.64-.67,1.5-1.01,2.36-1.01M291.49,320.68c.79,0,1.59.29,2.2.89l11.37,10.9c1.27,1.22,1.31,3.24.09,4.5l-10.9,11.37c-.63.65-1.46.98-2.3.98-.79,0-1.59-.29-2.2-.89-1.27-1.22-1.31-3.24-.09-4.5l8.7-9.08-9.07-8.7c-1.27-1.22-1.31-3.24-.09-4.5h0c.63-.64,1.46-.97,2.3-.97M270.68,298.93s-.03,0-.04,0c-1.33,0-2.58.54-3.52,1.49-.93.95-1.44,2.2-1.43,3.54l.12,43.96c.02,2.74,2.26,4.97,5,4.97,2.78-.02,5.01-2.27,4.99-5.03l-.12-43.96c-.02-2.74-2.26-4.97-5-4.97h0ZM249.33,300.22c-1.71,0-3.36.71-4.53,1.94l-11.11,11.67c-1.15,1.21-1.76,2.8-1.72,4.47.04,1.67.73,3.23,1.94,4.38l11.67,11.11c1.17,1.11,2.7,1.72,4.31,1.72,1.71,0,3.36-.71,4.53-1.94,1.15-1.21,1.76-2.8,1.72-4.47-.04-1.67-.73-3.23-1.94-4.38l-7.14-6.79,6.8-7.14c2.38-2.5,2.28-6.47-.22-8.85-1.17-1.11-2.7-1.72-4.31-1.72h0ZM291.49,317.68c-1.68,0-3.31.69-4.47,1.9,0,0-.02.02-.03.03-2.32,2.46-2.23,6.36.22,8.71l6.9,6.63-6.63,6.91c-1.14,1.19-1.75,2.76-1.72,4.41s.71,3.19,1.9,4.34c1.16,1.11,2.68,1.72,4.28,1.72s3.31-.69,4.47-1.9l10.9-11.37c2.36-2.46,2.28-6.39-.18-8.75l-11.37-10.9c-1.16-1.11-2.68-1.72-4.28-1.72h0Z"/><path class="c" d="M858.37,181.43c-18.54-2.97-35.98,9.66-38.94,28.2s9.66,35.98,28.2,38.94,35.98-9.66,38.94-28.2c2.97-18.54-9.66-35.98-28.2-38.94ZM868.05,222.6l-16.14,10.86c-.57.38-1.26.54-1.93.43s-1.28-.47-1.69-1.01l-11.95-15.35c-.5-.65-.72-1.47-.59-2.29.26-1.61,1.78-2.71,3.39-2.46l7.57,1.21,2.01-12.59c.37-2.32,2.55-3.9,4.87-3.53l4.2.67c2.32.37,3.9,2.55,3.53,4.87l-2.01,12.59,7.57,1.21c1.61.26,2.71,1.78,2.46,3.39-.13.81-.59,1.53-1.27,1.99Z"/><path class="b" d="M193.04,300.93c-1.13,2.48-2.45,3.97-4.41,4.38-.98.2-2.24.05-3.57-.49-12.22-4.84-39.81-14.9-51.08-19.12-1.34-.54-2.83-1.87-3.2-3.63-.2-.98-.01-2.04.73-3.42l10.92-20.41c-8.83,7.73-16.83,14.48-20.35,17.24l-1.05.83,8.64,33.14c.48,2.35-.68,4.63-3.03,5.11l-38.74,10.19c-2.15.44-4.44-.72-5.11-3.03l-41.07-158.38-.08-.39c-.4-1.96,1-4.08,2.92-4.68l38.78-10,.39-.08c2.15-.44,4.08,1,4.72,3.11l21.39,82.38c6.75-7.92,35.3-39.91,43.92-41.68,1.57-.32,3.49.1,5.58,2.33l21.69,23.11c1.03,1.01,1.66,2.11,1.9,3.29.4,1.96-.41,3.96-2.52,5.62-4.42,3.36-14.34,11.72-24.77,20.6,14.6,1.5,47.5,16.59,48.99,23.84.24,1.17.09,2.43-.57,4.2l-11.01,25.94Z"/><path class="b" d="M317.47,272.24c-1.71,3.45-3.66,5.3-6.26,5.37-2,.05-16.08-2.77-26.33-11.9-10.25,5.67-20.98,8.36-31.18,8.63-33.39.89-62.86-23.94-63.71-56.12-.64-23.99,15.43-59.03,55.02-60.08,10-.27,19.85,1.67,27.74,4.86,1.16-1.43,2.95-2.08,5.34-2.14l1-.03,34.67,2.08c5.21.26,6.68,2.82,6.74,5.22l.03,1c-2.31,18.27-4.65,35.74-4.3,48.93.32,12,2.75,20.53,9.23,23.76,2.03.95,4.26,2.09,4.31,4.09.01.4-.17,1-.55,1.82l-11.75,24.52ZM268.8,217.71c-.14-5.2-.08-10.6.16-16.61-2.51-3.93-7.98-6.59-13.78-6.44-12.6.34-19.27,12.72-19,22.91.3,11.2,8.35,20.58,21.35,20.24,3.8-.1,8.18-1.02,12.72-3.14-.74-5.18-1.29-10.77-1.45-16.97Z"/><path class="b" d="M340.53,298.41c-4.38-.44-6.29-1.44-7.14-4.95l-6.41-23.97c-.14-.62-.28-1.23-.24-1.63.3-2.98,4.32-2.98,6.71-2.74,11.76.99,17.9-4.01,18.38-8.79.26-2.59-2-6.03-4.42-9.9l-4.77-6.51c-7.74-10.84-10.46-19.76-9.69-27.32,2.28-22.48,35.93-31.13,61.99-28.48,7.76.79,9.67,1.79,10.7,5.51l6.61,23.99c.32.84.26,1.43.2,2.03-.22,2.19-2.49,2.76-5.08,2.5l-.8-.08c-11.94-1.21-16.92,2.3-17.32,6.28-.34,3.38,2.26,7.47,8.97,16.59,8.14,10.88,11.21,20.24,10.45,27.8-2.38,23.48-39.29,32.6-65.96,29.89l-2.19-.22Z"/><path class="b" d="M494.22,279.04c-9.78,2.36-19.26,3.34-28.04,2.76-27.74-1.83-48.27-18.81-47.62-56.05.25-13.01,1.48-37.78,2.12-50.57.54-8.18,3.44-9.59,5.85-9.64.23-.39,31.3-.55,34.7-.32,3.99.26,5.46,2.36,5.5,4.77.32,13.45,0,24.25-.36,48.08-.33,17.22,5.26,23.6,13.64,24.15,3.99.26,8.87-.82,14.02-2.89l8.11-68.41c.36-2.38,2.46-3.85,4.65-3.7l39.57,4.81c2.4.16,3.86,2.26,3.7,4.65l-12.22,103.42c-.36,2.38-2.46,3.85-4.65,3.7l-38.97-4.77Z"/><path class="b" d="M614.07,309.54l-.4-.06c-1.98-.28-3.32-2.28-3.21-4.49l3.83-42.07c1.79-20.14-1.21-29.04-13.55-31.77l-6.43,72.4c-.33,2.38-2.16,3.94-4.37,3.83l-37.29-3.37-.4-.06c-1.98-.28-3.32-2.28-3.21-4.49l9.37-103.7.06-.4c.3-2.18,2.11-3.54,4.12-3.47l11.97,1.06c10.57-1.96,20.7-2.17,30.2-.85,8.91,1.24,17.04,3.78,24.35,7.83,13.34-2.99,25.72-3.49,36.82-1.95,34.86,4.85,57.36,30.39,54.53,66.75-1,12.99-.17,23,8.12,31.62,1.05,1.16,3.15,3.47,2.85,5.65-.14.99-.7,2.12-2.03,2.95-.06.4-19.12,14.1-19.12,14.1-2.45,1.68-4.35,2.22-6.33,1.95-2.77-.39-33.02-10.85-29.97-50.21,1.98-21.53-1.07-30.03-12.14-33.19l-6.27,71.21c-.33,2.38-2.16,3.94-4.37,3.84l-37.12-3.14Z"/><path class="b" d="M757.86,193.19c-16.39.44-29.94-12.41-30.37-28.6s12.41-29.94,28.8-30.38,29.74,12.41,30.18,28.81c.43,16.19-12.41,29.74-28.61,30.17ZM748.22,304.68h-.4c-2.2.07-3.85-1.69-4.1-3.88l-7.59-97.23c-.06-2.4,1.49-4.24,3.88-4.5l39.93-3.06h.4c2-.06,3.85,1.69,3.9,3.69l7.59,97.43v.4c.06,2-1.69,3.85-3.68,4.1l-39.93,3.06Z"/><path class="b" d="M829.25,319.73c-14,.37-25.49-10.53-25.86-24.32-.37-13.8,10.52-25.49,24.52-25.86,13.79-.37,25.29,10.73,25.66,24.53.37,13.79-10.53,25.29-24.33,25.66Z"/><path class="b" d="M828.82,339c1.14-2.68,4.11-3.93,6.29-3.66l.79.1c1.36.37,2.75.54,3.95.69,11.91,1.46,22.49-2.68,26.05-11.91,6.61-17.73,15.45-68.43,20.21-103.91.76-4.54,3.24-5.04,5.62-4.75.2.02,33.58,5.53,37.92,6.27,3.13.79,4.65,3.19,4.3,5.97-.17,1.39-13.05,80-22.56,108.26-10.97,31.9-37.37,40.15-60.79,37.27-10.32-1.27-20.18-4.69-27.88-9.27-2.06-1.26-2.36-3.72-2.15-5.5.07-.6.15-1.19.39-1.56l7.85-17.98ZM912.36,213.25c-16.28-2-27.77-16.71-25.8-32.79,2-16.28,16.71-27.77,32.99-25.77,16.08,1.97,27.57,16.68,25.57,32.96-1.97,16.08-16.68,27.57-32.76,25.6Z"/><path class="b" d="M943.36,318.84c-4.23-1.22-5.93-2.54-6.14-6.14l-2.03-24.73c-.03-.63-.05-1.26.06-1.65.83-2.88,4.79-2.16,7.09-1.49,11.39,3.08,18.33-.75,19.65-5.37.72-2.5-.89-6.29-2.59-10.53l-3.53-7.26c-5.69-12.05-6.76-21.31-4.66-28.61,6.26-21.72,40.91-24.22,66.08-16.96,7.49,2.16,9.19,3.48,9.54,7.33l2.22,24.78c.16.88,0,1.46-.17,2.03-.61,2.11-2.95,2.27-5.44,1.55l-.77-.22c-11.53-3.32-17.06-.75-18.17,3.09-.94,3.27.89,7.75,5.87,17.93,6.07,12.16,7.42,21.91,5.32,29.21-6.54,22.68-44.48,25.06-70.23,17.64l-2.11-.61Z"/><path class="b" d="M362.66,151.18c-.36-.29-.51-.59-.52-.84-.01-.45.48-.76.63-.92,2.38-2.91,3.56-5.74,3.49-8.34-.06-2.35-1.11-4.47-3.26-6.27-1.39,4.49-3.08,8.83-4.98,12.88-.29.56-.47,1.11-1.12,1.13-.1,0-.25-.04-.45-.09l-7.5-1.86c-.4-.14-.81-.33-.82-.83,0-.15.04-.35.14-.6,1.79-4.4,3.51-9.84,5.03-15.03-2.06-.5-4.37-.94-6.98-1.23-.55-.09-1.26-.32-1.27-.97,0-.1.04-.25.09-.4l2.25-6.21c.33-.91.57-1.31,1.27-1.33.15,0,3.86.3,7.13,1.02l1.23-4.88c.14-.6.37-1.06,1.17-1.08h.35s7.08,1.02,7.08,1.02c.9.08,1.32.62,1.33,1.32.02.65-.96,5.53-1.23,6.88,7.75,3.81,11.09,9.53,11.24,15.37s-2.57,11.12-7.22,15.34c-.24.26-.59.36-.94.37-.4,0-.75-.08-1.11-.37l-5-4.08ZM384.74,129.72c-.18.65-.57,1.01-1.12,1.03-.25,0-.3,0-13.78-5.16-.4-.14-.66-.53-.68-1.03,0-.15.04-.35.09-.55l1.72-5.3c.23-.66.48-.86,1.23-.88,3.1-.08,10.79,1.58,13.73,3.16.51.24,1.01.52,1.03,1.22,0,.2-.04.4-.09.6l-2.13,6.91Z"/><path class="b" d="M418.81,126.07c.27,2.89.44,5.79.52,8.69,1.04,1.72,1.75,3.86,1.81,6.36.08,3.35-.92,7.43-3.45,12.14-.62,1.07-1.07,1.23-7.42,1.39-1.9.05-2.05-.1-2.06-.4,0-.15.09-.3.14-.5.7-1.87,1.21-3.53,1.58-4.99-1.04.23-2.09.35-3.14.38-4.7.12-10.55-1.94-10.73-9.24s5.43-10.94,11.38-11.09h.35s-.27-2.9-.27-2.9l-15.76-.26c-.55.01-.96-.38-.97-.88l.05-8.1c-.01-.5.48-.91,1.03-.93l14.76.23-.45-4.14v-.2c-.02-.45.12-.85.92-.92l8.39-.71h.1c1-.03,1.16.47,2,6.1l11.26.17c.55-.01.96.43.97.98l-.1,8.01c.01.55-.43.96-.98.97l-9.91-.15ZM406.87,136.72c-1.15.03-2.13.8-2.1,1.9.02.75.66,2.23,2.11,2.2,1.8-.04,1.95-1.85,1.91-3.45-.61-.48-1.27-.67-1.92-.65Z"/><path class="b" d="M456.96,149.78c-.45-.14-.71-.43-.72-.78,0-.2.04-.45.18-.66.91-1.77,2.08-4.7,3.2-7.88-1.82-.75-3.64-1.41-5.45-1.97-.31,1.71-.72,3.27-1.18,4.63-1.87,5.1-6.26,7.91-10.45,8.01-6.45.16-9.49-5.61-9.63-10.96-.16-6.55,4.1-11.91,11.1-12.33l.65-.02c-.15-5.85-.3-5.99-1.5-5.96-.25,0-.55.06-.9.12-1.74.29-6.08.95-6.53.96-1,.02-1.16-.42-1.22-.87,0,0-.92-4.63-1.17-6.72v-.35c-.03-.75.22-1.01.71-1.07.75-.02,8.13-.95,13.42-1.53.5-.06,1-.08,1.45-.09,3.9-.1,5.79,1.41,5.87,4.81.04,1.5.13,3.1.17,4.85.05,2.15.06,4.5.02,6.8,2.62.58,5.28,1.32,7.86,2.21.42-1.26.74-2.37.92-3.17.14-.4.58-.67,1.13-.68.15,0,.35.04.55.09l7.67,2.81c.55.19,1.06.57,1.08,1.37.01.6-.4,2.11-1.05,4.18,3.25,1.87,4.01,2.45,4.04,3.45.03,1.15-3.18,8.98-5.03,9.03-.25,0-.5-.09-.71-.28-.77-.68-1.58-1.31-2.4-1.94-2.99,6.38-3.63,6.69-4.13,6.7-.2,0-.4-.04-.65-.13l-7.32-2.62ZM444.04,137.09c-1.7.19-2.77,1.12-2.73,2.67.04,1.7,1.09,1.72,1.29,1.72,1.6-.04,1.9-2.1,2.19-4.46-.25,0-.55.01-.75.07Z"/><path class="b" d="M534.7,153.62c-.58,1.09-1.23,1.41-2.07,1.31-3.52-.43-18.95-5.36-16.02-29.58.55-4.57,1.8-9.45,3.68-14.67.28-.62.57-1.39,1.81-1.24.15.02.29.09.44.1l8.36,2.12c.73.19,1.03.68.94,1.37-.02.15-.04.3-.1.44-1.27,3.83-2.53,8.41-3.07,12.88-1.04,8.59.43,16.87,8.71,19.18.63.18,1.19.6,1.12,1.19-.02.15-.09.29-.15.43l-3.65,6.46ZM536.28,123.04l-.4-.05c-.74-.09-1.11-.39-1.2-.95l-.64-4.31c-.02-.25-.05-.46-.03-.61.08-.64.55-.79,1.16-.82l3.99-.07.15.02c.74.09,1.21.85,1.28,1.51l.46,4.13c.03.16.01.3,0,.45-.07.6-.46.85-1.41.84l-3.36-.15ZM546.65,124.69c-.28.22-.59.28-.84.25-.35-.04-.62-.28-.88-.61l-2.98-4.09c-.21-.33-.28-.59-.26-.79.05-.4.38-.66.65-.78l2.98-1.71c.32-.16.58-.23.88-.2.4.05.77.29,1.08.63l2.79,3.21.14.12c.26.33.38.6.35.9s-.28.62-.66.88l-3.23,2.18Z"/><path class="b" d="M550.05,152.9c-.26-.33-.33-.64-.29-.94.07-.55.56-.89.77-.91,6.75-2.06,11.77-8.25,11.83-8.75,0-.05-.04-.1-.04-.1,0-.05-.09-.06-.14-.07-.15-.02-.29-.09-.44-.1-1.18-.24-6.03-1.33-7.36-1.59-.54-.12-1.18-.7-1.09-1.44.01-.1.07-.19.09-.29l1.49-4.81c.25-.83.78-1.01,1.42-.94l.35.04c2.84.7,11.08,2.55,13.14,3,2.17.41,3.95,1.94,3.63,4.57-.2,1.64-1.44,4.46-3.92,7.43,1.29,1.42,2.41,2.11,3.56,2.24s2.25-.28,3.57-1.18c.16-.08.47-.14.77-.11.55.07.59.12,2.33,2.85,1.27,2.02,1.52,2.45,1.46,2.9-.05.4-.24.78-.36.91-2.64,2.65-5.67,3.55-8.64,3.19-3.18-.38-6.33-2.22-9.06-5.02-4.33,2.9-8.11,3.76-8.75,3.68-.35-.04-.73-.19-1.04-.53l-3.24-4.02ZM573.99,135.6c-.27.57-.7.77-1.19.71-.15-.02-.4-.05-.58-.17-2.75-1.44-7.53-3.93-9.91-5.12-.38-.2-.59-.57-.53-1.07.02-.15.04-.35.17-.53l2.2-4.02c.31-.52.59-.68,1.18-.61.2.02,6.84,1.73,10.59,4.05.37.25.78.65.7,1.29-.02.15-.09.34-.17.53l-2.46,4.94Z"/><path class="b" d="M582.89,144.93c-.55-.07-1.18-.65-1.1-1.29l1.09-9.03c.07-.6.78-1.01,1.32-.95l33.7,4.12c.55.07,1.13.64,1.05,1.28l-1.08,8.99c-.07.6-.77.96-1.32.9l-33.66-4.01Z"/><path class="b" d="M620.75,160.48c-.31-.39-.37-.7-.33-1,.07-.55.56-.89.82-.96,9.09-2.73,15.86-11.18,15.96-12.08.05-.4,0-.45-10.85-2.72-.64-.13-1.26-.81-1.16-1.65l.03-.25,2.08-6.4c.26-.88.74-1.12,1.53-1.02l.4.05c3.77.91,14.74,3.44,17.5,4.03,2.76.53,4.95,2.41,4.54,5.74-.45,3.72-4.22,8.66-5.28,9.94,1.86,2.09,3.5,3.14,5.14,3.34s3.17-.42,4.98-1.62c.16-.08.47-.14.82-.1.3.04.63.18.8.45,3.98,6.22,4.03,6.28,3.96,6.82-.05.45-.25.83-.42.96-3.44,3.46-7.37,4.7-11.29,4.23-4.22-.51-8.45-3.03-12.07-6.85-5.6,3.86-10.75,5.2-11.69,5.09-.4-.05-.78-.24-1.09-.58l-4.38-5.41ZM652.13,137.48c-.27.57-.71.87-1.26.81-.2-.02-.44-.1-.68-.23-3.69-1.96-10.04-5.24-13.18-6.83-.38-.2-.64-.58-.57-1.13.02-.15.04-.35.16-.53l2.96-5.33c.32-.57.55-.79,1.29-.7.4.05,9.14,2.31,13.91,5.36.47.31.92.72.84,1.41-.02.2-.05.4-.18.63l-3.31,6.55Z"/><path class="b" d="M690.51,145.43c-.15,2.9-.4,5.8-.74,8.67.78,1.86,1.17,4.07.87,6.55-.4,3.33-1.98,7.22-5.17,11.51-.77.97-1.24,1.06-7.54.3-1.89-.23-2.02-.39-1.98-.69.02-.15.14-.29.21-.48.97-1.75,1.71-3.32,2.28-4.71-1.07.07-2.12.05-3.16-.08-4.67-.56-10.16-3.44-9.29-10.69s6.95-10.04,12.86-9.33l.35.04.15-2.9-15.56-2.53c-.55-.07-.9-.51-.84-1.01l1.22-8.01c.06-.5.6-.83,1.15-.77l14.57,2.36.15-4.16.02-.2c.05-.45.25-.83,1.05-.78l8.4.51h.1c.99.13,1.08.65,1.1,6.34l11.12,1.79c.55.07.89.56.82,1.11l-1.26,7.91c-.07.55-.56.89-1.11.82l-9.78-1.58ZM677.16,154.25c-1.14-.14-2.22.49-2.36,1.58-.09.74.33,2.31,1.77,2.48,1.79.22,2.2-1.55,2.39-3.14-.54-.57-1.16-.84-1.8-.92Z"/><path class="b" d="M75.62,160.79l2.72,3.63,1.96,9.34c1.13,5.11,2.68,11.81,3.51,14.87.88,3.05,3.14,11.6,5.1,19,1.38,5.34,3.03,11.45,4.2,15.75.34-.04.68-.07,1.02-.11-1.21-4.82-2.54-9.82-3.94-14.78-6.05-21.25-10.27-39.98-11.51-51.02-.9-7.6-1.96-24.18-1.84-28.87.05-2.57-.36-3.21-.71-1.08-.39,2.24.24,17.46,1,24.92,1.02,9.91,1,9.81-1.52,6.64-2.85-3.71-8.34-13.46-10.97-19.72-4.53-10.5-11.25-32.89-11.05-36.66.09-2.07.73-1.92,1.93.51,2.21,4.4,10.48,12.2,15.93,15.01,2.41,1.24,2.26,1.05-1.48-1.6-6.48-4.66-12.52-10.74-14.53-14.68-.69-1.25-.52-1.51,2.28-3.62,5.94-4.51,13.34-8.98,27.01-16.25,2.35-1.3,2.34-1.35.06,2.82-1.76,3.18-3.56,7.54-3.03,7.44.27-.05,1.06-1.38,1.79-3.02,2.36-5.19,7.88-13.23,11.95-17.38,7.97-8.03,19.62-17.07,26.31-20.34,1.41-.72,2.18-1.32,1.84-1.37-1.2-.15-7.78,3.66-13.01,7.53-7.02,5.23-16.49,13.83-19.75,18.09-2.16,2.82-3.45,3.91-6.37,5.43-12.66,6.51-26.73,15.42-30.64,19.25l-1.85,1.87,1.85,7.36c5.6,22.62,12.26,38.25,21.74,51.04Z"/><path class="b" d="M256.13,129.14c-2.98-11.64-12.1-32.95-19.6-45.85-4.49-7.78-12.74-18.26-17.35-22.18-7.94-6.7-19.31-13.29-26.42-15.21-7.99-2.19-22.14-2.89-30.64-1.48l-5.39.85,4.63-.47c8.45-.84,22.62-.26,28.98,1.25,9.44,2.18,22.59,9.91,30.82,18.06,2.84,2.83,8.08,9.62,12.43,16.15,5.78,8.69,16.4,32.26,20.46,45.41,4.8,15.5,8.99,40.01,8.78,51.28-.1,5.77-.28,10.36-.53,13.69.39-.09.77-.18,1.16-.28.55-7.35.43-16.91-.37-24.97-.64-6.32-4.72-27.69-6.97-36.24Z"/><path class="b" d="M129.34,48.09c3.49-1.47,7.2-2.37,20.02-4.97l15.76-3.18,7.3.39c8.26.47,16.77,1.9,23.28,3.88,10.78,3.36,23.23,10.06,29.77,16.16,1.37,1.28,2.68,2.3,2.95,2.25.71-.08-1.56-2.53-4.74-5.12-1.64-1.29-2.95-2.53-2.86-2.66.31-.4,10.75.42,18.12,1.41,9.94,1.36,18.82,3.82,19.12,5.32.08.43-.07.79-.28.83-.27.05-.31,1.23-.09,2.63,1,6.14-.04,19.4-2.33,30.25-1.01,4.7-.1,2.85,1.12-2.22,1.99-8.45,2.82-16.62,2.45-24.05-.13-2.92-.03-2.66,1.14,2.94,2.69,12.97,3.06,33.07.77,44.48-.79,3.88-1.66,6.5-2.1,6.2-.13-.09-1.52-4.03-3.07-8.73-3.34-10.12-5.67-16.27-6.9-18.25-1.45-2.27-1.43-1.05-.06,1.68,1.41,2.61,2.64,6.03,6.91,18.86,2.25,6.84,3.04,10.29,5.15,22.04,1.36,7.68,2.78,16.79,3.18,20.21.4,3.42,1.38,11.73,2.27,18.45.54,4.12,1.12,8.7,1.55,12.31.33-.1.66-.2,1-.29-.07-.54-.14-1.08-.21-1.64-1.05-8.35-2.53-19.45-3.17-24.66-.7-5.2-1.59-12.19-2.01-15.44-.38-3.31-1.4-9.56-2.28-14l-1.53-7.98,1.28-4.48c3.59-12.44,3.6-30.89-.13-49.66l-2.15-11.13-5.55-1.62c-6.76-1.88-15.88-3.3-26.29-3.95-6.31-.42-8.09-.73-9.93-1.86-2.21-1.34-11.09-5.47-15.67-7.28-9.65-3.81-24.6-6.07-36.05-5.52-4.39.26-26.16,4.58-31.39,6.23-4.02,1.3-9.3,3.57-8.91,3.82.14.14,2.21-.61,4.57-1.63Z"/><path class="b" d="M135.64,50.46c-1.43-.49-8.52,2.41-15,6.2-13.85,8.08-20.58,15.59-28.62,31.97-8.69,17.56-11.65,34.27-9.98,56.17,2.23,29.85,9.61,57.44,20.15,77.43.34-.04.68-.09,1.01-.13-3.9-7.21-6.26-13.18-11.03-27.35-2.53-7.45-5.98-23.43-7.17-33.04-3.31-27.02-3.08-39.35,1.21-54.98,2.45-8.93,3.86-12.77,7.25-19.22,6.04-11.59,11.06-18.2,18.08-23.71,7.2-5.71,17.64-11.39,23.03-12.52,1.75-.4,1.95-.55,1.06-.82Z"/><path class="b" d="M152.81,98.57c-15.43-7.44-25.66-17.58-30.02-29.72-.76-2.13-1.41-4.61-1.37-5.51.03-.95-.21-1.63-.48-1.57-.91.18-.53,3.5.72,6.97,1.27,3.31,1.28,3.36.06,5.32-5.41,8.58-12.9,27.13-16.55,40.97-1.22,4.52-1.53,5.19-2.76,5.44-1.5.3-2.24-.39-2.68-2.58-.37-1.87-1.33-1.4-4,1.96-1.68,2.17-2.78,3.05-4.01,3.3-2.41.48-3.27,1.43-2.21,2.33.46.35,1.31.74,1.88.79,1.03.13,1,.3-.04,2.9-.58,1.56-.8,2.99-.54,3.16.26.17,1.82-.36,3.43-1.18l2.93-1.47,1.67,1.39c.89.82,1.94,1.39,2.32,1.32.53-.11.6,1.05.31,4.38-1.37,15.5,1.45,30,7.04,36.34l1.42,1.55-1.98-.72c-7.11-2.76-11.53-6.55-16.41-14.08-1.27-1.92-1.69-2.33-1.49-1.37.37,2.15,6.65,9.96,10.09,12.5,3,2.24,3.29,2.57,4.31,6.04.62,1.99,2.2,6.34,3.46,9.6,1.26,3.25,2.68,7.08,3.25,8.53,1.63,4.39,7.1,14.92,12.43,24.36.3-.04.61-.07.91-.11-3.5-6.37-7.55-14.11-8.85-17.03l-.72-1.69,4.26,1.88c3.04,1.34,4.52,2.33,5.27,3.57,1.81,2.97,8.34,9.24,11.86,11.32.25.15.51.29.76.44.6-.07,1.2-.15,1.81-.22-1.4-.76-2.75-1.61-4.1-2.58-3.43-2.43-9.77-8.9-10.02-10.18-.08-.43-.42-.97-.75-1.24-.9-.6-16.45-28.03-16.14-28.42.12-.25,1.08-.16,2.07.09.95.31,1.93.51,2.09.47.16-.03-.68-1.2-1.85-2.58-3.54-4.13-5.15-7.76-6.52-14.94-4.21-21.23,2.02-51.7,16.2-79.13l3.29-6.38,1.07,2.01c.6,1.05,2.12,3.41,3.36,5.17,5.6,7.78,14.09,14.16,26.93,20.33,7.67,3.65,17.97,7.94,18.83,7.77.16-.03-.8-1.51-2.11-3.36-1.36-1.79-3.55-5.02-4.93-7.19-1.32-2.18-2.71-4.41-3.04-4.95-.38-.54,1.43.22,4.07,1.75,10.84,6.19,20.58,10.15,28.51,11.46.87.16,1.61.57,1.68.89.07.37.27.5.4.31.13-.19-1.14-2.11-2.79-4.28-1.7-2.11-3.09-4.11-3.16-4.43-.05-.27.75-.7,1.82-.92,1.71-.34,2.58.1,9.06,4.48,7.51,5.07,12.82,8.02,21.8,12.13,3.59,1.57,5.57,2.84,5.96,3.71,1.03,2.13,3.16,16.77,3.1,20.95-.11,4.47-.77,8.16-2.17,11.77l-1,2.53,2.55-2.01c1.39-1.11,3.15-2.63,3.89-3.38q1.34-1.38,1.17-.29c-.11.58-.51,3.32-.85,6.06-2.48,19.72-5.64,34.02-8.68,39.46-1.26,2.21-3.52,5.28-6.15,8.45.56-.15,1.12-.31,1.68-.46,1.69-2.08,3.15-4.01,4.04-5.4,1.33-1.99,4.11-8.15,4.51-9.79.18-.76,1.26-2.03,2.39-2.81,1.06-.82,2.85-2.45,3.94-3.67,1.09-1.22,2.12-2.2,2.25-2.11.74.49-.07,10.37-1.28,19.35.37-.1.74-.21,1.11-.31.76-5.83,1.32-12.04,1.32-15.76.04-8.46-.63-19.99-1.61-29.41-.72-6.97-.7-7.47.53-9.66,1.48-2.63,4.44-11.22,3.99-11.52-.19-.13-1.19,2.13-2.23,5-2.2,5.99-4.73,10.33-7.79,13.38-2.38,2.31-3.49,2.86-2.55,1.17,2.41-4.09,2.56-11.74.55-23.28-1.87-10.8-3.42-15.27-10.09-28.73-6.96-14.07-12.14-22.27-17.67-28.01-3.43-3.54-10.25-8.8-11.21-8.61-.32.06,1.02,1.24,3.01,2.57,8.19,5.71,14.32,13.61,22.65,29.57,5.06,9.56,10.2,21.43,9.7,22.25-.17.26-12.18-5.36-16.54-7.72-3.31-1.84-13.99-8.9-14.73-9.8-.59-.72-.38-.81,1.38-.89,1.15-.06,4.65.19,7.78.57,3.14.43,5.74.64,5.84.56.39-.58-9.41-2.02-13.06-1.97-2.27.06-4.2.11-4.21.06-.05.01-2.47-2.35-5.32-5.23-6.73-6.72-11.44-12.85-14.45-18.75-3.04-6.07-3.19-6.26-2.18-2.85,1.28,4.47,8.81,18.65,13.05,24.59,1.17,1.71,2.21,3.29,2.25,3.5.04.21-1.16.9-2.59,1.51-1.49.63-3.17,1.41-3.72,1.68-1.9,1.04-19.14-8.21-22.09-11.9-.8-.95-1.32-1.35-1.29-.91.27,1.34,6.09,11.35,8.94,15.34,1.45,1.99,2.62,3.7,2.66,3.86.13.64-7.35-2.6-18.6-8.04ZM119.95,198.79l2.7,4.36-1.73-.6c-3.76-1.31-6.82-3.54-7.77-5.57-1.76-3.82-7.71-19.53-8.06-21.3-.27-1.34-.12-1.7.52-1.6.47.13.96.64,1.08,1.23.21,1.07,8.34,15.41,13.27,23.49ZM100.49,127.35c.72,3.64.38,4.15-1.65,2.61l-1.83-1.36-2.45,1.38c-1.35.77-2.51,1.33-2.59,1.24-.13-.09.15-1.2.55-2.55l.79-2.44-1.35-.62c-2.01-.88-1.87-1.57.32-2.01,1.55-.31,2.36-.97,3.9-3.05,2.06-2.8,2.82-2.89,3.52-.48.33,1.1.66,1.37,1.73,1.16l1.34-.27-1.36,2.1c-1.06,1.66-1.28,2.53-.93,4.3ZM102.85,125.49c-.79,4.44-.96,4.69-1.55,2.25-.37-1.59-.24-2.62.38-3.69,1.39-2.22,1.76-1.79,1.17,1.43ZM239.51,147.89c.18.35.64,5.76,1.08,11.9.99,14.53.99,15.09-.84,17.34-1.99,2.56-6.19,6.06-5.95,5.02.92-4.07,3.31-18.61,4.24-25.96.63-4.96,1.27-8.7,1.47-8.29ZM189.03,94.33c-2.55-3.61-7.51-11.79-7.13-11.87.16-.03,1.1,1.06,2.13,2.36,1.05,1.35,3.87,4.4,6.35,6.8,2.42,2.41,4.16,4.45,3.79,4.53s-1.14.39-1.81.69c-1.01.53-1.4.22-3.33-2.51ZM189.66,98.32c.38-.02,1.98,1.55,3.57,3.41,1.6,1.91,2.75,3.51,2.54,3.55-.91.18-11.98-4.07-11.72-4.45.39-.58,4.47-2.39,5.62-2.5Z"/><path class="b" d="M124.12,110.6c-6.57,2.75-13.69,7.22-14.35,8.91-.1.35,1.09-.38,2.63-1.58,5.41-4.13,11.11-6.76,17.93-8.23,3.37-.67,6.92-1.26,7.83-1.16,1.4.06,1.27-.03-.67-.59-2.87-.76-7.43.08-13.37,2.65Z"/><path class="b" d="M134.42,128.62c.21.24.9.32,1.54.19s2.9.04,5.07.33c4.05.53,5.08.38,1.71-.34-2.83-.55-8.81-.7-8.32-.18Z"/><path class="b" d="M188.96,118.3c-2.99,1.76-4.76,3.17-4.38,3.43.13.09,1.48-.68,2.99-1.76,1.46-1.07,3.69-2.4,4.93-2.87,1.74-.74,1.88-.87.6-.62-.86.17-2.75.99-4.14,1.82Z"/><path class="b" d="M124,135.19c.32.49-.3,1.28-1.85,2.42-2.86,2.12-5.84,5.6-4.54,5.4.48-.1.92-.4.97-.69.19-1.26,5.79-5.82,7.99-6.53,4.17-1.38,10.49-2.3,12.69-1.85,1.22.26,2.15.19,2.25-.17.16-.31.49-.6.76-.65.32-.06.43.19.33.55-.15.36.29.89.95,1.15.67.31,1.42,1,1.63,1.51.45.86.34.88-2.51.5-4.22-.55-10.65-.17-13.35.76-1.2.4-3.13,1.57-4.27,2.57-2.98,2.65-6.74,8.9-7.61,12.63-.7,2.92-.69,3.81.4,8.2l1.16,4.99-1.75-.99c-.99-.53-2.07-.92-2.39-.86-.63.18,2.02,1.77,5.46,3.42,1.91.95,1.94.84.44-1.14-1.79-2.31-3.4-11-2.54-13.95.98-3.47,3.57-7.77,4.66-7.87.56,0,1.33-.87,1.84-1.92,1.35-2.99,4.48-4.89,8.52-5.25,3.77-.3,7.09.15,7.27,1.06.06.32-.54.38-1.66.05-.94-.26-2.03-.43-2.41-.36-.36.13.43.47,1.72.83,1.35.34,3.05,1.06,3.83,1.63,2.98,2.13,5.77,10.58,5.07,15.45-.26,1.77-.21,2.32.3,2.05,1.09-.66.98-5.14-.28-9.84-1.17-4.49-3.16-8.1-5.25-9.63-1.83-1.36-.62-1.71,2.73-.82,3.4.88,3.56.85,2.36-.69-.64-.71-.58-.94.16-1.14.75-.15.78-.27.1-.35-1.67-.28-3.7-1.82-3.33-2.51.24-.49-.34-.6-1.85-.36-1.25.14-3.88.33-5.86.44-1.99.06-5.12.52-7.04.95-1.9.49-3.91.72-4.5.56-.76-.18-.91-.1-.58.45Z"/><path class="b" d="M192.79,121.93c-1.5.58.29.33,4.89-.58,6.59-1.25,7.52-1.32,10.55-.59,6.06,1.41,8.44,2.77,12.04,6.89,1.86,2.08,4.15,5.23,5.12,7.04.96,1.75,2.47,3.79,3.34,4.51,1.4,1.17,1.56,1.41.86,1.83-1.34.82-2.39.86-2.11.03.33-.84-.82.33-2.76,2.88l-1.22,1.69v-1.95c.06-2.51.09-2.35-2.11-6.75-2.77-5.29-4.28-6.99-9.14-10.19-5.5-3.63-7.8-4.29-11.8-3.44l-3.09.67,3.04-.1c3.87-.1,8.34,1.4,10.25,3.47l1.49,1.65-2.11-1.41c-1.92-1.29-7.13-3.14-8.2-2.93-.21.04,1.19.65,3.1,1.33,5.62,2,8.35,4.85,9.98,10.25.89,3.1.9,3.71-.05,7.29-1.24,4.69-.75,5.48.71,1.08,1.89-5.6,1.45-10.07-1.56-14.86-.55-.83-.51-.9.35-.46,1.42.72,5.32,6.06,7.01,9.56,1.61,3.35,1.73,6.21.3,8.5-1.48,2.35-.01,1.61,2.36-1.25,2.32-2.85,4.87-4.58,7.55-5.11q1.28-.25-.75-1.52c-1.95-1.17-3.26-2.69-4.85-5.65-.61-1.1-.51-1.18.94-1.13l1.62.07-1.87-.74c-1.02-.35-2.94-1.92-4.25-3.49-1.3-1.52-2.84-3.1-3.37-3.55-.52-.4-.77-.79-.45-.86.27-.05.85-.5,1.31-.98.73-.81.61-.84-1-.3-1.47.46-2.32.35-4.24-.66-1.29-.63-3.58-1.51-5.14-1.81-1.52-.37-2.71-.8-2.6-1.04.17-.53-11.13,1.6-14.15,2.64Z"/><path class="b" d="M187.42,123.99c1.28.58,1.31.46-1.5,3.08-1.55,1.42-1.57,2.15-.1,1.46,1.01-.53,1.02-.48.61,1.66-.26,1.22-.44,2.26-.41,2.42.02.11.91-.74,2.01-1.9,1.2-1.24,2.38-2.03,2.89-1.96.63.1,1.06-.27,1.31-.98.21-.6,1.39-1.67,2.65-2.31s2.19-1.27,2.01-1.34c-.45-.3-5.46,2.47-7.15,4.03-2.03,1.79-1.98,1.78-2.17-.01-.08-.98.39-1.97,1.32-2.87,1.86-1.81,1.8-2.14-.61-1.94-1.75.13-1.85.2-.87.67Z"/><path class="b" d="M128.03,140.67c-2.21,1.77-3.21,3.14-2.14,2.93.27-.05.64-.41.75-.7.15-.36,1.22-1.41,2.46-2.43,1.25-.97,2.04-1.74,1.72-1.68-.27.05-1.54.92-2.79,1.89Z"/><path class="b" d="M133.46,138.59c.5.01,1.25-.14,1.6-.32.29-.22-.11-.26-1.02-.08-.86.17-1.16.34-.59.39Z"/><path class="b" d="M195.83,126.88c-.85.78-1.11,1.39-.7,1.53.36.15.62.04.57-.22-.04-.21.63-1.01,1.5-1.69.82-.61,1.17-1.12.74-1.04-.44.03-1.41.72-2.11,1.42Z"/><path class="b" d="M113.75,143.72c.05.27.61.55,1.3.69,1.11.28,1.1.5-.66,4.8-1.01,2.48-2.49,5.11-3.34,5.83-1.75,1.57-1.77,2.57,0,1.72.72-.31,1.3-.43,1.34-.27.19.96-1.35,4.94-2.52,6.61-1.64,2.38-1.6,2.87.32,2.44.84-.22,1.04-.37.47-.43-.56,0-1.03-.13-1.04-.18-.02-.11.63-1.29,1.48-2.63,1.38-2.28,2.44-5.65,2.19-6.88-.06-.32-.5-.29-.95-.03-.5.27-.33-.27.42-1.25,2.47-3.21,4.82-11.02,3.29-10.88-.27.05-.88.06-1.38.05-.56,0-.96.19-.92.4Z"/><path class="b" d="M132.43,145.46c-1.12,2.22-.07,6.35,1.97,7.67,3.02,2.07,5.82-2.6,3.83-6.48-1.81-3.53-4.36-4.03-5.79-1.18ZM136.57,145.59c.68.92,1.33,2.24,1.47,2.93.33,1.66-.72,3.92-1.9,4.16-1.98.39-3.96-4.55-2.8-7.11.79-1.88,1.8-1.86,3.23.03Z"/><path class="b" d="M199.42,132.67c-1.52,2.97.19,7.41,2.65,6.92,1.71-.34,2.33-1.69,2.05-4.52-.36-4.32-3.02-5.68-4.7-2.4ZM203,134.19c.35,1.76-.07,4.68-.71,4.81-1.66.33-3.04-3.84-2-6.16.8-1.83,2.21-1.16,2.71,1.35Z"/><path class="b" d="M189.49,134.7c-.05.57.12,3.14.46,5.69.48,3.52.93,5.26,2.03,7.16,1.36,2.4,5.32,5.78,6.49,5.55.32-.06.47.13.36.43-.52,1.32,7.96.64,9.95-.81,3.79-2.75,4.45-3.33,4.34-3.92-.07-.37-1.23.24-2.87,1.51-2.45,1.93-3.27,2.26-6.46,2.73-3.57.49-3.69.45-6.72-1.67-1.8-1.25-3.54-3.02-4.17-4.23-1.44-2.77-2.51-8.45-2.09-11.37.28-1.95.21-2.32-.38-2.2-.43.08-.82.61-.94,1.13Z"/><path class="b" d="M121.16,149.7c.07.65.43,3.03.82,5.23.78,4.23,1.66,5.84,5.11,8.94,1.7,1.55,6.85,3.14,8.71,2.72.59-.12-.37-.48-2.1-.81-3.92-.72-7.46-3.13-8.98-6.05-1.18-2.32-2.17-8.13-1.76-10.27.15-.64.09-.96-.14-.7-.17.26-.65.35-1.04.09-.49-.24-.66.02-.61.84Z"/><path class="b" d="M145.08,161.57c-.94,1.69-2.43,3.15-4.41,4.38-2.76,1.77-2.85,1.9-1.08,1.55,1.02-.2,2.9-.8,4.19-1.28,1.85-.76,1.99-.9.7-.69l-1.61.26,1.39-1.39c1.64-1.55,3.41-4.96,2.7-5.15-.25-.12-1.09.94-1.87,2.32Z"/><path class="b" d="M210.05,152.91c.13.64,1.29,1.19,1.59.74.09-.13-.21-.51-.77-.79-.57-.33-.89-.27-.82.05Z"/><path class="b" d="M172.35,166.94c.19.96.69,2.09,1.04,2.46.49.51.56,0,.18-1.87-.28-1.39-.71-2.47-1.03-2.41-.27.05-.38.91-.2,1.82Z"/><path class="b" d="M173.15,185.37c-1.67,1.94-2.04,3.46-1.09,4.61.51.62,1.28.86,2.23.61,1.11-.28,1.16-.34.31-.4-1.12-.06-2.08-.7-2.25-1.55-.05-.27.52-1.32,1.25-2.36,2-2.79,4.75-3.22,7.44-1.14,1.12.89,2.08,1.81,2.14,2.08s-.88.9-2.04,1.46l-2.18,1.04,2.31-.68c1.25-.42,2.47-.99,2.69-1.31.56-.83-1.45-3.38-3.27-4.13-2.01-.88-6.05.03-7.54,1.77Z"/><path class="b" d="M104.69,87.72c-.95,1.63-2.13,2.7-3.37,3.17-1.08.44-2.49,1.16-3.19,1.58l-1.23.8,2.13,1.47c1.93,1.34,2.09,1.59,1.82,3.31-.5,3.66.6,4.16,3.13,1.49l1.33-1.43,1.9,1.18c1.01.63,1.92,1.01,2.1.81.13-.19.11-1.69-.04-3.27-.27-2.78-.17-3.08,1.76-4.85,1.12-1.06,2.01-2.18,1.95-2.5-.05-.27-1.18-.32-2.51-.06l-2.41.48-.41-2.09c-.23-1.18-.66-2.2-.96-2.31-.25-.12-1.16.9-2,2.23ZM109.96,90.18l2.28-.29-1.98,1.78c-2.08,1.86-2.39,2.81-1.77,5.91l.37,1.87-1.68-1.17-1.67-1.11-1.67,1.67c-.88.9-1.75,1.57-1.87,1.48-.18-.08-.18-1.19-.04-2.44.17-2.2.14-2.36-1.6-3.3-1-.58-1.74-1.21-1.56-1.41.13-.19,1.38-.89,2.79-1.61,1.78-.85,2.92-1.8,3.56-3.04l.92-1.79.82,1.89c.78,1.68,1.02,1.8,3.09,1.55Z"/><path class="b" d="M240.97,62.79c.41.09.88-.06,1.01-.26.18-.2-.17-.3-.75-.13-.59.12-.72.31-.26.38Z"/><path class="b" d="M255.13,66.37c-2.93,7.36-6.85,13.64-11.19,18.12-.51.49-.11.3.81-.38,3.49-2.58,9.8-13.06,11.45-19.06.78-2.77.33-2.23-1.07,1.32Z"/><path class="b" d="M57.46,113.54c4.66,10.3,12.48,21.98,15.9,23.86.68.36.35-.18-.77-1.35-3.46-3.7-7.92-10.21-11.52-16.89-3.36-6.28-5.13-9.04-3.62-5.62Z"/><path class="b" d="M235.07,102.26c.12.59.31.72.38.26.09-.41-.06-.88-.26-1.01-.2-.18-.3.17-.13.75Z"/><path class="b" d="M254.81,335.39c-1.92,0-3.49-1.56-3.5-3.47l-.12-43.97c0-.93.35-1.81,1-2.47.66-.67,1.53-1.04,2.47-1.04,1.94,0,3.51,1.56,3.52,3.47l.12,43.97c.01,1.92-1.54,3.5-3.47,3.51h-.02ZM275.96,334.83c-1.21,0-2.37-.46-3.24-1.3-.9-.87-1.41-2.03-1.44-3.28s.44-2.44,1.3-3.34l7.67-8-7.99-7.66c-1.86-1.79-1.93-4.76-.14-6.62,0,0,.01-.01.02-.02.89-.91,2.08-1.42,3.36-1.42s2.37.46,3.24,1.3l11.37,10.9c.9.87,1.42,2.03,1.44,3.28.03,1.25-.44,2.44-1.3,3.34l-10.9,11.37c-.89.93-2.09,1.44-3.38,1.44ZM233.89,318.01c-1.23,0-2.39-.47-3.28-1.31l-11.67-11.11c-.92-.88-1.44-2.06-1.48-3.33-.03-1.27.43-2.48,1.31-3.4l11.11-11.67c.89-.94,2.15-1.48,3.45-1.48,1.23,0,2.39.47,3.28,1.31.92.88,1.44,2.06,1.48,3.33.03,1.27-.43,2.48-1.31,3.4l-7.83,8.23,8.23,7.82c.92.88,1.44,2.06,1.48,3.33.03,1.27-.43,2.48-1.31,3.4-.89.94-2.15,1.48-3.45,1.48h0Z"/><path class="b" d="M254.68,285.93c1.1,0,1.99.88,2,1.98l.12,43.97c0,1.1-.88,2-1.98,2.01,0,0,0,0-.01,0-1.1,0-1.99-.88-2-1.98l-.12-43.97c0-1.1.88-2,1.98-2.01,0,0,0,0,.01,0M233.33,287.22c.81,0,1.62.3,2.25.9,1.3,1.24,1.35,3.3.11,4.61l-8.86,9.31,9.31,8.85c1.3,1.24,1.35,3.3.11,4.61-.64.67-1.5,1.01-2.36,1.01-.81,0-1.62-.3-2.25-.9l-11.67-11.11c-1.3-1.24-1.35-3.3-.11-4.61l11.11-11.67c.64-.67,1.5-1.01,2.36-1.01M275.49,304.68c.79,0,1.59.29,2.2.89l11.37,10.9c1.27,1.22,1.31,3.24.09,4.5l-10.9,11.37c-.63.65-1.46.98-2.3.98-.79,0-1.59-.29-2.2-.89-1.27-1.22-1.31-3.24-.09-4.5l8.7-9.08-9.07-8.7c-1.27-1.22-1.31-3.24-.09-4.5h0c.63-.64,1.46-.97,2.3-.97M254.68,282.93s-.03,0-.04,0c-1.33,0-2.58.54-3.52,1.49-.93.95-1.44,2.2-1.43,3.54l.12,43.96c.02,2.74,2.26,4.97,5,4.97,2.78-.02,5.01-2.27,4.99-5.03l-.12-43.96c-.02-2.74-2.26-4.97-5-4.97h0ZM233.33,284.22c-1.71,0-3.36.71-4.53,1.94l-11.11,11.67c-1.15,1.21-1.76,2.8-1.72,4.47.04,1.67.73,3.23,1.94,4.38l11.67,11.11c1.17,1.11,2.7,1.72,4.31,1.72,1.71,0,3.36-.71,4.53-1.94,1.15-1.21,1.76-2.8,1.72-4.47-.04-1.67-.73-3.23-1.94-4.38l-7.14-6.79,6.8-7.14c2.38-2.5,2.28-6.47-.22-8.85-1.17-1.11-2.7-1.72-4.31-1.72h0ZM275.49,301.68c-1.68,0-3.31.69-4.47,1.9,0,0-.02.02-.03.03-2.32,2.46-2.23,6.36.22,8.71l6.9,6.63-6.63,6.91c-1.14,1.19-1.75,2.76-1.72,4.41s.71,3.19,1.9,4.34c1.16,1.11,2.68,1.72,4.28,1.72s3.31-.69,4.47-1.9l10.9-11.37c2.36-2.46,2.28-6.39-.18-8.75l-11.37-10.9c-1.16-1.11-2.68-1.72-4.28-1.72h0Z"/><path class="b" d="M842.37,165.43c-18.54-2.97-35.98,9.66-38.94,28.2s9.66,35.98,28.2,38.94,35.98-9.66,38.94-28.2c2.97-18.54-9.66-35.98-28.2-38.94ZM852.05,206.6l-16.14,10.86c-.57.38-1.26.54-1.93.43s-1.28-.47-1.69-1.01l-11.95-15.35c-.5-.65-.72-1.47-.59-2.29.26-1.61,1.78-2.71,3.39-2.46l7.57,1.21,2.01-12.59c.37-2.32,2.55-3.9,4.87-3.53l4.2.67c2.32.37,3.9,2.55,3.53,4.87l-2.01,12.59,7.57,1.21c1.61.26,2.71,1.78,2.46,3.39-.13.81-.59,1.53-1.27,1.99Z"/><path class="e" d="M193.04,300.93c-1.13,2.48-2.45,3.97-4.41,4.38-.98.2-2.24.05-3.57-.49-12.22-4.84-39.81-14.9-51.08-19.12-1.34-.54-2.83-1.87-3.2-3.63-.2-.98-.01-2.04.73-3.42l10.92-20.41c-8.83,7.73-16.83,14.48-20.35,17.24l-1.05.83,8.64,33.14c.48,2.35-.68,4.63-3.03,5.11l-38.74,10.19c-2.15.44-4.44-.72-5.11-3.03l-41.07-158.38-.08-.39c-.4-1.96,1-4.08,2.92-4.68l38.78-10,.39-.08c2.15-.44,4.08,1,4.72,3.11l21.39,82.38c6.75-7.92,35.3-39.91,43.92-41.68,1.57-.32,3.49.1,5.58,2.33l21.69,23.11c1.03,1.01,1.66,2.11,1.9,3.29.4,1.96-.41,3.96-2.52,5.62-4.42,3.36-14.34,11.72-24.77,20.6,14.6,1.5,47.5,16.59,48.99,23.84.24,1.17.09,2.43-.57,4.2l-11.01,25.94Z"/><path class="e" d="M317.47,272.24c-1.71,3.45-3.66,5.3-6.26,5.37-2,.05-16.08-2.77-26.33-11.9-10.25,5.67-20.98,8.36-31.18,8.63-33.39.89-62.86-23.94-63.71-56.12-.64-23.99,15.43-59.03,55.02-60.08,10-.27,19.85,1.67,27.74,4.86,1.16-1.43,2.95-2.08,5.34-2.14l1-.03,34.67,2.08c5.21.26,6.68,2.82,6.74,5.22l.03,1c-2.31,18.27-4.65,35.74-4.3,48.93.32,12,2.75,20.53,9.23,23.76,2.03.95,4.26,2.09,4.31,4.09.01.4-.17,1-.55,1.82l-11.75,24.52ZM268.8,217.71c-.14-5.2-.08-10.6.16-16.61-2.51-3.93-7.98-6.59-13.78-6.44-12.6.34-19.27,12.72-19,22.91.3,11.2,8.35,20.58,21.35,20.24,3.8-.1,8.18-1.02,12.72-3.14-.74-5.18-1.29-10.77-1.45-16.97Z"/><path class="e" d="M340.53,298.41c-4.38-.44-6.29-1.44-7.14-4.95l-6.41-23.97c-.14-.62-.28-1.23-.24-1.63.3-2.98,4.32-2.98,6.71-2.74,11.76.99,17.9-4.01,18.38-8.79.26-2.59-2-6.03-4.42-9.9l-4.77-6.51c-7.74-10.84-10.46-19.76-9.69-27.32,2.28-22.48,35.93-31.13,61.99-28.48,7.76.79,9.67,1.79,10.7,5.51l6.61,23.99c.32.84.26,1.43.2,2.03-.22,2.19-2.49,2.76-5.08,2.5l-.8-.08c-11.94-1.21-16.92,2.3-17.32,6.28-.34,3.38,2.26,7.47,8.97,16.59,8.14,10.88,11.21,20.24,10.45,27.8-2.38,23.48-39.29,32.6-65.96,29.89l-2.19-.22Z"/><path class="e" d="M494.22,279.04c-9.78,2.36-19.26,3.34-28.04,2.76-27.74-1.83-48.27-18.81-47.62-56.05.25-13.01,1.48-37.78,2.12-50.57.54-8.18,3.44-9.59,5.85-9.64.23-.39,31.3-.55,34.7-.32,3.99.26,5.46,2.36,5.5,4.77.32,13.45,0,24.25-.36,48.08-.33,17.22,5.26,23.6,13.64,24.15,3.99.26,8.87-.82,14.02-2.89l8.11-68.41c.36-2.38,2.46-3.85,4.65-3.7l39.57,4.81c2.4.16,3.86,2.26,3.7,4.65l-12.22,103.42c-.36,2.38-2.46,3.85-4.65,3.7l-38.97-4.77Z"/><path class="e" d="M614.07,309.54l-.4-.06c-1.98-.28-3.32-2.28-3.21-4.49l3.83-42.07c1.79-20.14-1.21-29.04-13.55-31.77l-6.43,72.4c-.33,2.38-2.16,3.94-4.37,3.83l-37.29-3.37-.4-.06c-1.98-.28-3.32-2.28-3.21-4.49l9.37-103.7.06-.4c.3-2.18,2.11-3.54,4.12-3.47l11.97,1.06c10.57-1.96,20.7-2.17,30.2-.85,8.91,1.24,17.04,3.78,24.35,7.83,13.34-2.99,25.72-3.49,36.82-1.95,34.86,4.85,57.36,30.39,54.53,66.75-1,12.99-.17,23,8.12,31.62,1.05,1.16,3.15,3.47,2.85,5.65-.14.99-.7,2.12-2.03,2.95-.06.4-19.12,14.1-19.12,14.1-2.45,1.68-4.35,2.22-6.33,1.95-2.77-.39-33.02-10.85-29.97-50.21,1.98-21.53-1.07-30.03-12.14-33.19l-6.27,71.21c-.33,2.38-2.16,3.94-4.37,3.84l-37.12-3.14Z"/><path class="e" d="M757.86,193.19c-16.39.44-29.94-12.41-30.37-28.6s12.41-29.94,28.8-30.38,29.74,12.41,30.18,28.81c.43,16.19-12.41,29.74-28.61,30.17ZM748.22,304.68h-.4c-2.2.07-3.85-1.69-4.1-3.88l-7.59-97.23c-.06-2.4,1.49-4.24,3.88-4.5l39.93-3.06h.4c2-.06,3.85,1.69,3.9,3.69l7.59,97.43v.4c.06,2-1.69,3.85-3.68,4.1l-39.93,3.06Z"/><path class="e" d="M829.25,319.73c-14,.37-25.49-10.53-25.86-24.32-.37-13.8,10.52-25.49,24.52-25.86,13.79-.37,25.29,10.73,25.66,24.53.37,13.79-10.53,25.29-24.33,25.66Z"/><path class="e" d="M828.82,339c1.14-2.68,4.11-3.93,6.29-3.66l.79.1c1.36.37,2.75.54,3.95.69,11.91,1.46,22.49-2.68,26.05-11.91,6.61-17.73,15.45-68.43,20.21-103.91.76-4.54,3.24-5.04,5.62-4.75.2.02,33.58,5.53,37.92,6.27,3.13.79,4.65,3.19,4.3,5.97-.17,1.39-13.05,80-22.56,108.26-10.97,31.9-37.37,40.15-60.79,37.27-10.32-1.27-20.18-4.69-27.88-9.27-2.06-1.26-2.36-3.72-2.15-5.5.07-.6.15-1.19.39-1.56l7.85-17.98ZM912.36,213.25c-16.28-2-27.77-16.71-25.8-32.79,2-16.28,16.71-27.77,32.99-25.77,16.08,1.97,27.57,16.68,25.57,32.96-1.97,16.08-16.68,27.57-32.76,25.6Z"/><path class="e" d="M943.36,318.84c-4.23-1.22-5.93-2.54-6.14-6.14l-2.03-24.73c-.03-.63-.05-1.26.06-1.65.83-2.88,4.79-2.16,7.09-1.49,11.39,3.08,18.33-.75,19.65-5.37.72-2.5-.89-6.29-2.59-10.53l-3.53-7.26c-5.69-12.05-6.76-21.31-4.66-28.61,6.26-21.72,40.91-24.22,66.08-16.96,7.49,2.16,9.19,3.48,9.54,7.33l2.22,24.78c.16.88,0,1.46-.17,2.03-.61,2.11-2.95,2.27-5.44,1.55l-.77-.22c-11.53-3.32-17.06-.75-18.17,3.09-.94,3.27.89,7.75,5.87,17.93,6.07,12.16,7.42,21.91,5.32,29.21-6.54,22.68-44.48,25.06-70.23,17.64l-2.11-.61Z"/><path class="e" d="M362.66,151.18c-.36-.29-.51-.59-.52-.84-.01-.45.48-.76.63-.92,2.38-2.91,3.56-5.74,3.49-8.34-.06-2.35-1.11-4.47-3.26-6.27-1.39,4.49-3.08,8.83-4.98,12.88-.29.56-.47,1.11-1.12,1.13-.1,0-.25-.04-.45-.09l-7.5-1.86c-.4-.14-.81-.33-.82-.83,0-.15.04-.35.14-.6,1.79-4.4,3.51-9.84,5.03-15.03-2.06-.5-4.37-.94-6.98-1.23-.55-.09-1.26-.32-1.27-.97,0-.1.04-.25.09-.4l2.25-6.21c.33-.91.57-1.31,1.27-1.33.15,0,3.86.3,7.13,1.02l1.23-4.88c.14-.6.37-1.06,1.17-1.08h.35s7.08,1.02,7.08,1.02c.9.08,1.32.62,1.33,1.32.02.65-.96,5.53-1.23,6.88,7.75,3.81,11.09,9.53,11.24,15.37s-2.57,11.12-7.22,15.34c-.24.26-.59.36-.94.37-.4,0-.75-.08-1.11-.37l-5-4.08ZM384.74,129.72c-.18.65-.57,1.01-1.12,1.03-.25,0-.3,0-13.78-5.16-.4-.14-.66-.53-.68-1.03,0-.15.04-.35.09-.55l1.72-5.3c.23-.66.48-.86,1.23-.88,3.1-.08,10.79,1.58,13.73,3.16.51.24,1.01.52,1.03,1.22,0,.2-.04.4-.09.6l-2.13,6.91Z"/><path class="e" d="M418.81,126.07c.27,2.89.44,5.79.52,8.69,1.04,1.72,1.75,3.86,1.81,6.36.08,3.35-.92,7.43-3.45,12.14-.62,1.07-1.07,1.23-7.42,1.39-1.9.05-2.05-.1-2.06-.4,0-.15.09-.3.14-.5.7-1.87,1.21-3.53,1.58-4.99-1.04.23-2.09.35-3.14.38-4.7.12-10.55-1.94-10.73-9.24s5.43-10.94,11.38-11.09h.35s-.27-2.9-.27-2.9l-15.76-.26c-.55.01-.96-.38-.97-.88l.05-8.1c-.01-.5.48-.91,1.03-.93l14.76.23-.45-4.14v-.2c-.02-.45.12-.85.92-.92l8.39-.71h.1c1-.03,1.16.47,2,6.1l11.26.17c.55-.01.96.43.97.98l-.1,8.01c.01.55-.43.96-.98.97l-9.91-.15ZM406.87,136.72c-1.15.03-2.13.8-2.1,1.9.02.75.66,2.23,2.11,2.2,1.8-.04,1.95-1.85,1.91-3.45-.61-.48-1.27-.67-1.92-.65Z"/><path class="e" d="M456.96,149.78c-.45-.14-.71-.43-.72-.78,0-.2.04-.45.18-.66.91-1.77,2.08-4.7,3.2-7.88-1.82-.75-3.64-1.41-5.45-1.97-.31,1.71-.72,3.27-1.18,4.63-1.87,5.1-6.26,7.91-10.45,8.01-6.45.16-9.49-5.61-9.63-10.96-.16-6.55,4.1-11.91,11.1-12.33l.65-.02c-.15-5.85-.3-5.99-1.5-5.96-.25,0-.55.06-.9.12-1.74.29-6.08.95-6.53.96-1,.02-1.16-.42-1.22-.87,0,0-.92-4.63-1.17-6.72v-.35c-.03-.75.22-1.01.71-1.07.75-.02,8.13-.95,13.42-1.53.5-.06,1-.08,1.45-.09,3.9-.1,5.79,1.41,5.87,4.81.04,1.5.13,3.1.17,4.85.05,2.15.06,4.5.02,6.8,2.62.58,5.28,1.32,7.86,2.21.42-1.26.74-2.37.92-3.17.14-.4.58-.67,1.13-.68.15,0,.35.04.55.09l7.67,2.81c.55.19,1.06.57,1.08,1.37.01.6-.4,2.11-1.05,4.18,3.25,1.87,4.01,2.45,4.04,3.45.03,1.15-3.18,8.98-5.03,9.03-.25,0-.5-.09-.71-.28-.77-.68-1.58-1.31-2.4-1.94-2.99,6.38-3.63,6.69-4.13,6.7-.2,0-.4-.04-.65-.13l-7.32-2.62ZM444.04,137.09c-1.7.19-2.77,1.12-2.73,2.67.04,1.7,1.09,1.72,1.29,1.72,1.6-.04,1.9-2.1,2.19-4.46-.25,0-.55.01-.75.07Z"/><path class="e" d="M534.7,153.62c-.58,1.09-1.23,1.41-2.07,1.31-3.52-.43-18.95-5.36-16.02-29.58.55-4.57,1.8-9.45,3.68-14.67.28-.62.57-1.39,1.81-1.24.15.02.29.09.44.1l8.36,2.12c.73.19,1.03.68.94,1.37-.02.15-.04.3-.1.44-1.27,3.83-2.53,8.41-3.07,12.88-1.04,8.59.43,16.87,8.71,19.18.63.18,1.19.6,1.12,1.19-.02.15-.09.29-.15.43l-3.65,6.46ZM536.28,123.04l-.4-.05c-.74-.09-1.11-.39-1.2-.95l-.64-4.31c-.02-.25-.05-.46-.03-.61.08-.64.55-.79,1.16-.82l3.99-.07.15.02c.74.09,1.21.85,1.28,1.51l.46,4.13c.03.16.01.3,0,.45-.07.6-.46.85-1.41.84l-3.36-.15ZM546.65,124.69c-.28.22-.59.28-.84.25-.35-.04-.62-.28-.88-.61l-2.98-4.09c-.21-.33-.28-.59-.26-.79.05-.4.38-.66.65-.78l2.98-1.71c.32-.16.58-.23.88-.2.4.05.77.29,1.08.63l2.79,3.21.14.12c.26.33.38.6.35.9s-.28.62-.66.88l-3.23,2.18Z"/><path class="e" d="M550.05,152.9c-.26-.33-.33-.64-.29-.94.07-.55.56-.89.77-.91,6.75-2.06,11.77-8.25,11.83-8.75,0-.05-.04-.1-.04-.1,0-.05-.09-.06-.14-.07-.15-.02-.29-.09-.44-.1-1.18-.24-6.03-1.33-7.36-1.59-.54-.12-1.18-.7-1.09-1.44.01-.1.07-.19.09-.29l1.49-4.81c.25-.83.78-1.01,1.42-.94l.35.04c2.84.7,11.08,2.55,13.14,3,2.17.41,3.95,1.94,3.63,4.57-.2,1.64-1.44,4.46-3.92,7.43,1.29,1.42,2.41,2.11,3.56,2.24s2.25-.28,3.57-1.18c.16-.08.47-.14.77-.11.55.07.59.12,2.33,2.85,1.27,2.02,1.52,2.45,1.46,2.9-.05.4-.24.78-.36.91-2.64,2.65-5.67,3.55-8.64,3.19-3.18-.38-6.33-2.22-9.06-5.02-4.33,2.9-8.11,3.76-8.75,3.68-.35-.04-.73-.19-1.04-.53l-3.24-4.02ZM573.99,135.6c-.27.57-.7.77-1.19.71-.15-.02-.4-.05-.58-.17-2.75-1.44-7.53-3.93-9.91-5.12-.38-.2-.59-.57-.53-1.07.02-.15.04-.35.17-.53l2.2-4.02c.31-.52.59-.68,1.18-.61.2.02,6.84,1.73,10.59,4.05.37.25.78.65.7,1.29-.02.15-.09.34-.17.53l-2.46,4.94Z"/><path class="e" d="M582.89,144.93c-.55-.07-1.18-.65-1.1-1.29l1.09-9.03c.07-.6.78-1.01,1.32-.95l33.7,4.12c.55.07,1.13.64,1.05,1.28l-1.08,8.99c-.07.6-.77.96-1.32.9l-33.66-4.01Z"/><path class="e" d="M620.75,160.48c-.31-.39-.37-.7-.33-1,.07-.55.56-.89.82-.96,9.09-2.73,15.86-11.18,15.96-12.08.05-.4,0-.45-10.85-2.72-.64-.13-1.26-.81-1.16-1.65l.03-.25,2.08-6.4c.26-.88.74-1.12,1.53-1.02l.4.05c3.77.91,14.74,3.44,17.5,4.03,2.76.53,4.95,2.41,4.54,5.74-.45,3.72-4.22,8.66-5.28,9.94,1.86,2.09,3.5,3.14,5.14,3.34s3.17-.42,4.98-1.62c.16-.08.47-.14.82-.1.3.04.63.18.8.45,3.98,6.22,4.03,6.28,3.96,6.82-.05.45-.25.83-.42.96-3.44,3.46-7.37,4.7-11.29,4.23-4.22-.51-8.45-3.03-12.07-6.85-5.6,3.86-10.75,5.2-11.69,5.09-.4-.05-.78-.24-1.09-.58l-4.38-5.41ZM652.13,137.48c-.27.57-.71.87-1.26.81-.2-.02-.44-.1-.68-.23-3.69-1.96-10.04-5.24-13.18-6.83-.38-.2-.64-.58-.57-1.13.02-.15.04-.35.16-.53l2.96-5.33c.32-.57.55-.79,1.29-.7.4.05,9.14,2.31,13.91,5.36.47.31.92.72.84,1.41-.02.2-.05.4-.18.63l-3.31,6.55Z"/><path class="e" d="M690.51,145.43c-.15,2.9-.4,5.8-.74,8.67.78,1.86,1.17,4.07.87,6.55-.4,3.33-1.98,7.22-5.17,11.51-.77.97-1.24,1.06-7.54.3-1.89-.23-2.02-.39-1.98-.69.02-.15.14-.29.21-.48.97-1.75,1.71-3.32,2.28-4.71-1.07.07-2.12.05-3.16-.08-4.67-.56-10.16-3.44-9.29-10.69s6.95-10.04,12.86-9.33l.35.04.15-2.9-15.56-2.53c-.55-.07-.9-.51-.84-1.01l1.22-8.01c.06-.5.6-.83,1.15-.77l14.57,2.36.15-4.16.02-.2c.05-.45.25-.83,1.05-.78l8.4.51h.1c.99.13,1.08.65,1.1,6.34l11.12,1.79c.55.07.89.56.82,1.11l-1.26,7.91c-.07.55-.56.89-1.11.82l-9.78-1.58ZM677.16,154.25c-1.14-.14-2.22.49-2.36,1.58-.09.74.33,2.31,1.77,2.48,1.79.22,2.2-1.55,2.39-3.14-.54-.57-1.16-.84-1.8-.92Z"/><path class="d" d="M75.62,160.79l2.72,3.63,1.96,9.34c1.13,5.11,2.68,11.81,3.51,14.87.88,3.05,3.14,11.6,5.1,19,1.38,5.34,3.03,11.45,4.2,15.75.34-.04.68-.07,1.02-.11-1.21-4.82-2.54-9.82-3.94-14.78-6.05-21.25-10.27-39.98-11.51-51.02-.9-7.6-1.96-24.18-1.84-28.87.05-2.57-.36-3.21-.71-1.08-.39,2.24.24,17.46,1,24.92,1.02,9.91,1,9.81-1.52,6.64-2.85-3.71-8.34-13.46-10.97-19.72-4.53-10.5-11.25-32.89-11.05-36.66.09-2.07.73-1.92,1.93.51,2.21,4.4,10.48,12.2,15.93,15.01,2.41,1.24,2.26,1.05-1.48-1.6-6.48-4.66-12.52-10.74-14.53-14.68-.69-1.25-.52-1.51,2.28-3.62,5.94-4.51,13.34-8.98,27.01-16.25,2.35-1.3,2.34-1.35.06,2.82-1.76,3.18-3.56,7.54-3.03,7.44.27-.05,1.06-1.38,1.79-3.02,2.36-5.19,7.88-13.23,11.95-17.38,7.97-8.03,19.62-17.07,26.31-20.34,1.41-.72,2.18-1.32,1.84-1.37-1.2-.15-7.78,3.66-13.01,7.53-7.02,5.23-16.49,13.83-19.75,18.09-2.16,2.82-3.45,3.91-6.37,5.43-12.66,6.51-26.73,15.42-30.64,19.25l-1.85,1.87,1.85,7.36c5.6,22.62,12.26,38.25,21.74,51.04Z"/><path class="d" d="M256.13,129.14c-2.98-11.64-12.1-32.95-19.6-45.85-4.49-7.78-12.74-18.26-17.35-22.18-7.94-6.7-19.31-13.29-26.42-15.21-7.99-2.19-22.14-2.89-30.64-1.48l-5.39.85,4.63-.47c8.45-.84,22.62-.26,28.98,1.25,9.44,2.18,22.59,9.91,30.82,18.06,2.84,2.83,8.08,9.62,12.43,16.15,5.78,8.69,16.4,32.26,20.46,45.41,4.8,15.5,8.99,40.01,8.78,51.28-.1,5.77-.28,10.36-.53,13.69.39-.09.77-.18,1.16-.28.55-7.35.43-16.91-.37-24.97-.64-6.32-4.72-27.69-6.97-36.24Z"/><path class="d" d="M129.34,48.09c3.49-1.47,7.2-2.37,20.02-4.97l15.76-3.18,7.3.39c8.26.47,16.77,1.9,23.28,3.88,10.78,3.36,23.23,10.06,29.77,16.16,1.37,1.28,2.68,2.3,2.95,2.25.71-.08-1.56-2.53-4.74-5.12-1.64-1.29-2.95-2.53-2.86-2.66.31-.4,10.75.42,18.12,1.41,9.94,1.36,18.82,3.82,19.12,5.32.08.43-.07.79-.28.83-.27.05-.31,1.23-.09,2.63,1,6.14-.04,19.4-2.33,30.25-1.01,4.7-.1,2.85,1.12-2.22,1.99-8.45,2.82-16.62,2.45-24.05-.13-2.92-.03-2.66,1.14,2.94,2.69,12.97,3.06,33.07.77,44.48-.79,3.88-1.66,6.5-2.1,6.2-.13-.09-1.52-4.03-3.07-8.73-3.34-10.12-5.67-16.27-6.9-18.25-1.45-2.27-1.43-1.05-.06,1.68,1.41,2.61,2.64,6.03,6.91,18.86,2.25,6.84,3.04,10.29,5.15,22.04,1.36,7.68,2.78,16.79,3.18,20.21.4,3.42,1.38,11.73,2.27,18.45.54,4.12,1.12,8.7,1.55,12.31.33-.1.66-.2,1-.29-.07-.54-.14-1.08-.21-1.64-1.05-8.35-2.53-19.45-3.17-24.66-.7-5.2-1.59-12.19-2.01-15.44-.38-3.31-1.4-9.56-2.28-14l-1.53-7.98,1.28-4.48c3.59-12.44,3.6-30.89-.13-49.66l-2.15-11.13-5.55-1.62c-6.76-1.88-15.88-3.3-26.29-3.95-6.31-.42-8.09-.73-9.93-1.86-2.21-1.34-11.09-5.47-15.67-7.28-9.65-3.81-24.6-6.07-36.05-5.52-4.39.26-26.16,4.58-31.39,6.23-4.02,1.3-9.3,3.57-8.91,3.82.14.14,2.21-.61,4.57-1.63Z"/><path class="d" d="M135.64,50.46c-1.43-.49-8.52,2.41-15,6.2-13.85,8.08-20.58,15.59-28.62,31.97-8.69,17.56-11.65,34.27-9.98,56.17,2.23,29.85,9.61,57.44,20.15,77.43.34-.04.68-.09,1.01-.13-3.9-7.21-6.26-13.18-11.03-27.35-2.53-7.45-5.98-23.43-7.17-33.04-3.31-27.02-3.08-39.35,1.21-54.98,2.45-8.93,3.86-12.77,7.25-19.22,6.04-11.59,11.06-18.2,18.08-23.71,7.2-5.71,17.64-11.39,23.03-12.52,1.75-.4,1.95-.55,1.06-.82Z"/><path class="d" d="M152.81,98.57c-15.43-7.44-25.66-17.58-30.02-29.72-.76-2.13-1.41-4.61-1.37-5.51.03-.95-.21-1.63-.48-1.57-.91.18-.53,3.5.72,6.97,1.27,3.31,1.28,3.36.06,5.32-5.41,8.58-12.9,27.13-16.55,40.97-1.22,4.52-1.53,5.19-2.76,5.44-1.5.3-2.24-.39-2.68-2.58-.37-1.87-1.33-1.4-4,1.96-1.68,2.17-2.78,3.05-4.01,3.3-2.41.48-3.27,1.43-2.21,2.33.46.35,1.31.74,1.88.79,1.03.13,1,.3-.04,2.9-.58,1.56-.8,2.99-.54,3.16.26.17,1.82-.36,3.43-1.18l2.93-1.47,1.67,1.39c.89.82,1.94,1.39,2.32,1.32.53-.11.6,1.05.31,4.38-1.37,15.5,1.45,30,7.04,36.34l1.42,1.55-1.98-.72c-7.11-2.76-11.53-6.55-16.41-14.08-1.27-1.92-1.69-2.33-1.49-1.37.37,2.15,6.65,9.96,10.09,12.5,3,2.24,3.29,2.57,4.31,6.04.62,1.99,2.2,6.34,3.46,9.6,1.26,3.25,2.68,7.08,3.25,8.53,1.63,4.39,7.1,14.92,12.43,24.36.3-.04.61-.07.91-.11-3.5-6.37-7.55-14.11-8.85-17.03l-.72-1.69,4.26,1.88c3.04,1.34,4.52,2.33,5.27,3.57,1.81,2.97,8.34,9.24,11.86,11.32.25.15.51.29.76.44.6-.07,1.2-.15,1.81-.22-1.4-.76-2.75-1.61-4.1-2.58-3.43-2.43-9.77-8.9-10.02-10.18-.08-.43-.42-.97-.75-1.24-.9-.6-16.45-28.03-16.14-28.42.12-.25,1.08-.16,2.07.09.95.31,1.93.51,2.09.47.16-.03-.68-1.2-1.85-2.58-3.54-4.13-5.15-7.76-6.52-14.94-4.21-21.23,2.02-51.7,16.2-79.13l3.29-6.38,1.07,2.01c.6,1.05,2.12,3.41,3.36,5.17,5.6,7.78,14.09,14.16,26.93,20.33,7.67,3.65,17.97,7.94,18.83,7.77.16-.03-.8-1.51-2.11-3.36-1.36-1.79-3.55-5.02-4.93-7.19-1.32-2.18-2.71-4.41-3.04-4.95-.38-.54,1.43.22,4.07,1.75,10.84,6.19,20.58,10.15,28.51,11.46.87.16,1.61.57,1.68.89.07.37.27.5.4.31.13-.19-1.14-2.11-2.79-4.28-1.7-2.11-3.09-4.11-3.16-4.43-.05-.27.75-.7,1.82-.92,1.71-.34,2.58.1,9.06,4.48,7.51,5.07,12.82,8.02,21.8,12.13,3.59,1.57,5.57,2.84,5.96,3.71,1.03,2.13,3.16,16.77,3.1,20.95-.11,4.47-.77,8.16-2.17,11.77l-1,2.53,2.55-2.01c1.39-1.11,3.15-2.63,3.89-3.38q1.34-1.38,1.17-.29c-.11.58-.51,3.32-.85,6.06-2.48,19.72-5.64,34.02-8.68,39.46-1.26,2.21-3.52,5.28-6.15,8.45.56-.15,1.12-.31,1.68-.46,1.69-2.08,3.15-4.01,4.04-5.4,1.33-1.99,4.11-8.15,4.51-9.79.18-.76,1.26-2.03,2.39-2.81,1.06-.82,2.85-2.45,3.94-3.67,1.09-1.22,2.12-2.2,2.25-2.11.74.49-.07,10.37-1.28,19.35.37-.1.74-.21,1.11-.31.76-5.83,1.32-12.04,1.32-15.76.04-8.46-.63-19.99-1.61-29.41-.72-6.97-.7-7.47.53-9.66,1.48-2.63,4.44-11.22,3.99-11.52-.19-.13-1.19,2.13-2.23,5-2.2,5.99-4.73,10.33-7.79,13.38-2.38,2.31-3.49,2.86-2.55,1.17,2.41-4.09,2.56-11.74.55-23.28-1.87-10.8-3.42-15.27-10.09-28.73-6.96-14.07-12.14-22.27-17.67-28.01-3.43-3.54-10.25-8.8-11.21-8.61-.32.06,1.02,1.24,3.01,2.57,8.19,5.71,14.32,13.61,22.65,29.57,5.06,9.56,10.2,21.43,9.7,22.25-.17.26-12.18-5.36-16.54-7.72-3.31-1.84-13.99-8.9-14.73-9.8-.59-.72-.38-.81,1.38-.89,1.15-.06,4.65.19,7.78.57,3.14.43,5.74.64,5.84.56.39-.58-9.41-2.02-13.06-1.97-2.27.06-4.2.11-4.21.06-.05.01-2.47-2.35-5.32-5.23-6.73-6.72-11.44-12.85-14.45-18.75-3.04-6.07-3.19-6.26-2.18-2.85,1.28,4.47,8.81,18.65,13.05,24.59,1.17,1.71,2.21,3.29,2.25,3.5.04.21-1.16.9-2.59,1.51-1.49.63-3.17,1.41-3.72,1.68-1.9,1.04-19.14-8.21-22.09-11.9-.8-.95-1.32-1.35-1.29-.91.27,1.34,6.09,11.35,8.94,15.34,1.45,1.99,2.62,3.7,2.66,3.86.13.64-7.35-2.6-18.6-8.04ZM119.95,198.79l2.7,4.36-1.73-.6c-3.76-1.31-6.82-3.54-7.77-5.57-1.76-3.82-7.71-19.53-8.06-21.3-.27-1.34-.12-1.7.52-1.6.47.13.96.64,1.08,1.23.21,1.07,8.34,15.41,13.27,23.49ZM100.49,127.35c.72,3.64.38,4.15-1.65,2.61l-1.83-1.36-2.45,1.38c-1.35.77-2.51,1.33-2.59,1.24-.13-.09.15-1.2.55-2.55l.79-2.44-1.35-.62c-2.01-.88-1.87-1.57.32-2.01,1.55-.31,2.36-.97,3.9-3.05,2.06-2.8,2.82-2.89,3.52-.48.33,1.1.66,1.37,1.73,1.16l1.34-.27-1.36,2.1c-1.06,1.66-1.28,2.53-.93,4.3ZM102.85,125.49c-.79,4.44-.96,4.69-1.55,2.25-.37-1.59-.24-2.62.38-3.69,1.39-2.22,1.76-1.79,1.17,1.43ZM239.51,147.89c.18.35.64,5.76,1.08,11.9.99,14.53.99,15.09-.84,17.34-1.99,2.56-6.19,6.06-5.95,5.02.92-4.07,3.31-18.61,4.24-25.96.63-4.96,1.27-8.7,1.47-8.29ZM189.03,94.33c-2.55-3.61-7.51-11.79-7.13-11.87.16-.03,1.1,1.06,2.13,2.36,1.05,1.35,3.87,4.4,6.35,6.8,2.42,2.41,4.16,4.45,3.79,4.53s-1.14.39-1.81.69c-1.01.53-1.4.22-3.33-2.51ZM189.66,98.32c.38-.02,1.98,1.55,3.57,3.41,1.6,1.91,2.75,3.51,2.54,3.55-.91.18-11.98-4.07-11.72-4.45.39-.58,4.47-2.39,5.62-2.5Z"/><path class="d" d="M124.12,110.6c-6.57,2.75-13.69,7.22-14.35,8.91-.1.35,1.09-.38,2.63-1.58,5.41-4.13,11.11-6.76,17.93-8.23,3.37-.67,6.92-1.26,7.83-1.16,1.4.06,1.27-.03-.67-.59-2.87-.76-7.43.08-13.37,2.65Z"/><path class="d" d="M134.42,128.62c.21.24.9.32,1.54.19s2.9.04,5.07.33c4.05.53,5.08.38,1.71-.34-2.83-.55-8.81-.7-8.32-.18Z"/><path class="d" d="M188.96,118.3c-2.99,1.76-4.76,3.17-4.38,3.43.13.09,1.48-.68,2.99-1.76,1.46-1.07,3.69-2.4,4.93-2.87,1.74-.74,1.88-.87.6-.62-.86.17-2.75.99-4.14,1.82Z"/><path class="d" d="M124,135.19c.32.49-.3,1.28-1.85,2.42-2.86,2.12-5.84,5.6-4.54,5.4.48-.1.92-.4.97-.69.19-1.26,5.79-5.82,7.99-6.53,4.17-1.38,10.49-2.3,12.69-1.85,1.22.26,2.15.19,2.25-.17.16-.31.49-.6.76-.65.32-.06.43.19.33.55-.15.36.29.89.95,1.15.67.31,1.42,1,1.63,1.51.45.86.34.88-2.51.5-4.22-.55-10.65-.17-13.35.76-1.2.4-3.13,1.57-4.27,2.57-2.98,2.65-6.74,8.9-7.61,12.63-.7,2.92-.69,3.81.4,8.2l1.16,4.99-1.75-.99c-.99-.53-2.07-.92-2.39-.86-.63.18,2.02,1.77,5.46,3.42,1.91.95,1.94.84.44-1.14-1.79-2.31-3.4-11-2.54-13.95.98-3.47,3.57-7.77,4.66-7.87.56,0,1.33-.87,1.84-1.92,1.35-2.99,4.48-4.89,8.52-5.25,3.77-.3,7.09.15,7.27,1.06.06.32-.54.38-1.66.05-.94-.26-2.03-.43-2.41-.36-.36.13.43.47,1.72.83,1.35.34,3.05,1.06,3.83,1.63,2.98,2.13,5.77,10.58,5.07,15.45-.26,1.77-.21,2.32.3,2.05,1.09-.66.98-5.14-.28-9.84-1.17-4.49-3.16-8.1-5.25-9.63-1.83-1.36-.62-1.71,2.73-.82,3.4.88,3.56.85,2.36-.69-.64-.71-.58-.94.16-1.14.75-.15.78-.27.1-.35-1.67-.28-3.7-1.82-3.33-2.51.24-.49-.34-.6-1.85-.36-1.25.14-3.88.33-5.86.44-1.99.06-5.12.52-7.04.95-1.9.49-3.91.72-4.5.56-.76-.18-.91-.1-.58.45Z"/><path class="d" d="M192.79,121.93c-1.5.58.29.33,4.89-.58,6.59-1.25,7.52-1.32,10.55-.59,6.06,1.41,8.44,2.77,12.04,6.89,1.86,2.08,4.15,5.23,5.12,7.04.96,1.75,2.47,3.79,3.34,4.51,1.4,1.17,1.56,1.41.86,1.83-1.34.82-2.39.86-2.11.03.33-.84-.82.33-2.76,2.88l-1.22,1.69v-1.95c.06-2.51.09-2.35-2.11-6.75-2.77-5.29-4.28-6.99-9.14-10.19-5.5-3.63-7.8-4.29-11.8-3.44l-3.09.67,3.04-.1c3.87-.1,8.34,1.4,10.25,3.47l1.49,1.65-2.11-1.41c-1.92-1.29-7.13-3.14-8.2-2.93-.21.04,1.19.65,3.1,1.33,5.62,2,8.35,4.85,9.98,10.25.89,3.1.9,3.71-.05,7.29-1.24,4.69-.75,5.48.71,1.08,1.89-5.6,1.45-10.07-1.56-14.86-.55-.83-.51-.9.35-.46,1.42.72,5.32,6.06,7.01,9.56,1.61,3.35,1.73,6.21.3,8.5-1.48,2.35-.01,1.61,2.36-1.25,2.32-2.85,4.87-4.58,7.55-5.11q1.28-.25-.75-1.52c-1.95-1.17-3.26-2.69-4.85-5.65-.61-1.1-.51-1.18.94-1.13l1.62.07-1.87-.74c-1.02-.35-2.94-1.92-4.25-3.49-1.3-1.52-2.84-3.1-3.37-3.55-.52-.4-.77-.79-.45-.86.27-.05.85-.5,1.31-.98.73-.81.61-.84-1-.3-1.47.46-2.32.35-4.24-.66-1.29-.63-3.58-1.51-5.14-1.81-1.52-.37-2.71-.8-2.6-1.04.17-.53-11.13,1.6-14.15,2.64Z"/><path class="d" d="M187.42,123.99c1.28.58,1.31.46-1.5,3.08-1.55,1.42-1.57,2.15-.1,1.46,1.01-.53,1.02-.48.61,1.66-.26,1.22-.44,2.26-.41,2.42.02.11.91-.74,2.01-1.9,1.2-1.24,2.38-2.03,2.89-1.96.63.1,1.06-.27,1.31-.98.21-.6,1.39-1.67,2.65-2.31s2.19-1.27,2.01-1.34c-.45-.3-5.46,2.47-7.15,4.03-2.03,1.79-1.98,1.78-2.17-.01-.08-.98.39-1.97,1.32-2.87,1.86-1.81,1.8-2.14-.61-1.94-1.75.13-1.85.2-.87.67Z"/><path class="d" d="M128.03,140.67c-2.21,1.77-3.21,3.14-2.14,2.93.27-.05.64-.41.75-.7.15-.36,1.22-1.41,2.46-2.43,1.25-.97,2.04-1.74,1.72-1.68-.27.05-1.54.92-2.79,1.89Z"/><path class="d" d="M133.46,138.59c.5.01,1.25-.14,1.6-.32.29-.22-.11-.26-1.02-.08-.86.17-1.16.34-.59.39Z"/><path class="d" d="M195.83,126.88c-.85.78-1.11,1.39-.7,1.53.36.15.62.04.57-.22-.04-.21.63-1.01,1.5-1.69.82-.61,1.17-1.12.74-1.04-.44.03-1.41.72-2.11,1.42Z"/><path class="d" d="M113.75,143.72c.05.27.61.55,1.3.69,1.11.28,1.1.5-.66,4.8-1.01,2.48-2.49,5.11-3.34,5.83-1.75,1.57-1.77,2.57,0,1.72.72-.31,1.3-.43,1.34-.27.19.96-1.35,4.94-2.52,6.61-1.64,2.38-1.6,2.87.32,2.44.84-.22,1.04-.37.47-.43-.56,0-1.03-.13-1.04-.18-.02-.11.63-1.29,1.48-2.63,1.38-2.28,2.44-5.65,2.19-6.88-.06-.32-.5-.29-.95-.03-.5.27-.33-.27.42-1.25,2.47-3.21,4.82-11.02,3.29-10.88-.27.05-.88.06-1.38.05-.56,0-.96.19-.92.4Z"/><path class="d" d="M132.43,145.46c-1.12,2.22-.07,6.35,1.97,7.67,3.02,2.07,5.82-2.6,3.83-6.48-1.81-3.53-4.36-4.03-5.79-1.18ZM136.57,145.59c.68.92,1.33,2.24,1.47,2.93.33,1.66-.72,3.92-1.9,4.16-1.98.39-3.96-4.55-2.8-7.11.79-1.88,1.8-1.86,3.23.03Z"/><path class="d" d="M199.42,132.67c-1.52,2.97.19,7.41,2.65,6.92,1.71-.34,2.33-1.69,2.05-4.52-.36-4.32-3.02-5.68-4.7-2.4ZM203,134.19c.35,1.76-.07,4.68-.71,4.81-1.66.33-3.04-3.84-2-6.16.8-1.83,2.21-1.16,2.71,1.35Z"/><path class="d" d="M189.49,134.7c-.05.57.12,3.14.46,5.69.48,3.52.93,5.26,2.03,7.16,1.36,2.4,5.32,5.78,6.49,5.55.32-.06.47.13.36.43-.52,1.32,7.96.64,9.95-.81,3.79-2.75,4.45-3.33,4.34-3.92-.07-.37-1.23.24-2.87,1.51-2.45,1.93-3.27,2.26-6.46,2.73-3.57.49-3.69.45-6.72-1.67-1.8-1.25-3.54-3.02-4.17-4.23-1.44-2.77-2.51-8.45-2.09-11.37.28-1.95.21-2.32-.38-2.2-.43.08-.82.61-.94,1.13Z"/><path class="d" d="M121.16,149.7c.07.65.43,3.03.82,5.23.78,4.23,1.66,5.84,5.11,8.94,1.7,1.55,6.85,3.14,8.71,2.72.59-.12-.37-.48-2.1-.81-3.92-.72-7.46-3.13-8.98-6.05-1.18-2.32-2.17-8.13-1.76-10.27.15-.64.09-.96-.14-.7-.17.26-.65.35-1.04.09-.49-.24-.66.02-.61.84Z"/><path class="d" d="M145.08,161.57c-.94,1.69-2.43,3.15-4.41,4.38-2.76,1.77-2.85,1.9-1.08,1.55,1.02-.2,2.9-.8,4.19-1.28,1.85-.76,1.99-.9.7-.69l-1.61.26,1.39-1.39c1.64-1.55,3.41-4.96,2.7-5.15-.25-.12-1.09.94-1.87,2.32Z"/><path class="d" d="M210.05,152.91c.13.64,1.29,1.19,1.59.74.09-.13-.21-.51-.77-.79-.57-.33-.89-.27-.82.05Z"/><path class="d" d="M172.35,166.94c.19.96.69,2.09,1.04,2.46.49.51.56,0,.18-1.87-.28-1.39-.71-2.47-1.03-2.41-.27.05-.38.91-.2,1.82Z"/><path class="d" d="M173.15,185.37c-1.67,1.94-2.04,3.46-1.09,4.61.51.62,1.28.86,2.23.61,1.11-.28,1.16-.34.31-.4-1.12-.06-2.08-.7-2.25-1.55-.05-.27.52-1.32,1.25-2.36,2-2.79,4.75-3.22,7.44-1.14,1.12.89,2.08,1.81,2.14,2.08s-.88.9-2.04,1.46l-2.18,1.04,2.31-.68c1.25-.42,2.47-.99,2.69-1.31.56-.83-1.45-3.38-3.27-4.13-2.01-.88-6.05.03-7.54,1.77Z"/><path class="d" d="M104.69,87.72c-.95,1.63-2.13,2.7-3.37,3.17-1.08.44-2.49,1.16-3.19,1.58l-1.23.8,2.13,1.47c1.93,1.34,2.09,1.59,1.82,3.31-.5,3.66.6,4.16,3.13,1.49l1.33-1.43,1.9,1.18c1.01.63,1.92,1.01,2.1.81.13-.19.11-1.69-.04-3.27-.27-2.78-.17-3.08,1.76-4.85,1.12-1.06,2.01-2.18,1.95-2.5-.05-.27-1.18-.32-2.51-.06l-2.41.48-.41-2.09c-.23-1.18-.66-2.2-.96-2.31-.25-.12-1.16.9-2,2.23ZM109.96,90.18l2.28-.29-1.98,1.78c-2.08,1.86-2.39,2.81-1.77,5.91l.37,1.87-1.68-1.17-1.67-1.11-1.67,1.67c-.88.9-1.75,1.57-1.87,1.48-.18-.08-.18-1.19-.04-2.44.17-2.2.14-2.36-1.6-3.3-1-.58-1.74-1.21-1.56-1.41.13-.19,1.38-.89,2.79-1.61,1.78-.85,2.92-1.8,3.56-3.04l.92-1.79.82,1.89c.78,1.68,1.02,1.8,3.09,1.55Z"/><path class="d" d="M240.97,62.79c.41.09.88-.06,1.01-.26.18-.2-.17-.3-.75-.13-.59.12-.72.31-.26.38Z"/><path class="d" d="M255.13,66.37c-2.93,7.36-6.85,13.64-11.19,18.12-.51.49-.11.3.81-.38,3.49-2.58,9.8-13.06,11.45-19.06.78-2.77.33-2.23-1.07,1.32Z"/><path class="d" d="M57.46,113.54c4.66,10.3,12.48,21.98,15.9,23.86.68.36.35-.18-.77-1.35-3.46-3.7-7.92-10.21-11.52-16.89-3.36-6.28-5.13-9.04-3.62-5.62Z"/><path class="d" d="M235.07,102.26c.12.59.31.72.38.26.09-.41-.06-.88-.26-1.01-.2-.18-.3.17-.13.75Z"/><path class="f" d="M254.81,335.39c-1.92,0-3.49-1.56-3.5-3.47l-.12-43.97c0-.93.35-1.81,1-2.47.66-.67,1.53-1.04,2.47-1.04,1.94,0,3.51,1.56,3.52,3.47l.12,43.97c.01,1.92-1.54,3.5-3.47,3.51h-.02ZM275.96,334.83c-1.21,0-2.37-.46-3.24-1.3-.9-.87-1.41-2.03-1.44-3.28s.44-2.44,1.3-3.34l7.67-8-7.99-7.66c-1.86-1.79-1.93-4.76-.14-6.62,0,0,.01-.01.02-.02.89-.91,2.08-1.42,3.36-1.42s2.37.46,3.24,1.3l11.37,10.9c.9.87,1.42,2.03,1.44,3.28.03,1.25-.44,2.44-1.3,3.34l-10.9,11.37c-.89.93-2.09,1.44-3.38,1.44ZM233.89,318.01c-1.23,0-2.39-.47-3.28-1.31l-11.67-11.11c-.92-.88-1.44-2.06-1.48-3.33-.03-1.27.43-2.48,1.31-3.4l11.11-11.67c.89-.94,2.15-1.48,3.45-1.48,1.23,0,2.39.47,3.28,1.31.92.88,1.44,2.06,1.48,3.33.03,1.27-.43,2.48-1.31,3.4l-7.83,8.23,8.23,7.82c.92.88,1.44,2.06,1.48,3.33.03,1.27-.43,2.48-1.31,3.4-.89.94-2.15,1.48-3.45,1.48h0Z"/><path class="f" d="M254.68,285.93c1.1,0,1.99.88,2,1.98l.12,43.97c0,1.1-.88,2-1.98,2.01,0,0,0,0-.01,0-1.1,0-1.99-.88-2-1.98l-.12-43.97c0-1.1.88-2,1.98-2.01,0,0,0,0,.01,0M233.33,287.22c.81,0,1.62.3,2.25.9,1.3,1.24,1.35,3.3.11,4.61l-8.86,9.31,9.31,8.85c1.3,1.24,1.35,3.3.11,4.61-.64.67-1.5,1.01-2.36,1.01-.81,0-1.62-.3-2.25-.9l-11.67-11.11c-1.3-1.24-1.35-3.3-.11-4.61l11.11-11.67c.64-.67,1.5-1.01,2.36-1.01M275.49,304.68c.79,0,1.59.29,2.2.89l11.37,10.9c1.27,1.22,1.31,3.24.09,4.5l-10.9,11.37c-.63.65-1.46.98-2.3.98-.79,0-1.59-.29-2.2-.89-1.27-1.22-1.31-3.24-.09-4.5l8.7-9.08-9.07-8.7c-1.27-1.22-1.31-3.24-.09-4.5h0c.63-.64,1.46-.97,2.3-.97M254.68,282.93s-.03,0-.04,0c-1.33,0-2.58.54-3.52,1.49-.93.95-1.44,2.2-1.43,3.54l.12,43.96c.02,2.74,2.26,4.97,5,4.97,2.78-.02,5.01-2.27,4.99-5.03l-.12-43.96c-.02-2.74-2.26-4.97-5-4.97h0ZM233.33,284.22c-1.71,0-3.36.71-4.53,1.94l-11.11,11.67c-1.15,1.21-1.76,2.8-1.72,4.47.04,1.67.73,3.23,1.94,4.38l11.67,11.11c1.17,1.11,2.7,1.72,4.31,1.72,1.71,0,3.36-.71,4.53-1.94,1.15-1.21,1.76-2.8,1.72-4.47-.04-1.67-.73-3.23-1.94-4.38l-7.14-6.79,6.8-7.14c2.38-2.5,2.28-6.47-.22-8.85-1.17-1.11-2.7-1.72-4.31-1.72h0ZM275.49,301.68c-1.68,0-3.31.69-4.47,1.9,0,0-.02.02-.03.03-2.32,2.46-2.23,6.36.22,8.71l6.9,6.63-6.63,6.91c-1.14,1.19-1.75,2.76-1.72,4.41s.71,3.19,1.9,4.34c1.16,1.11,2.68,1.72,4.28,1.72s3.31-.69,4.47-1.9l10.9-11.37c2.36-2.46,2.28-6.39-.18-8.75l-11.37-10.9c-1.16-1.11-2.68-1.72-4.28-1.72h0Z"/><path class="g" d="M842.37,165.43c-18.54-2.97-35.98,9.66-38.94,28.2s9.66,35.98,28.2,38.94,35.98-9.66,38.94-28.2c2.97-18.54-9.66-35.98-28.2-38.94ZM852.05,206.6l-16.14,10.86c-.57.38-1.26.54-1.93.43s-1.28-.47-1.69-1.01l-11.95-15.35c-.5-.65-.72-1.47-.59-2.29.26-1.61,1.78-2.71,3.39-2.46l7.57,1.21,2.01-12.59c.37-2.32,2.55-3.9,4.87-3.53l4.2.67c2.32.37,3.9,2.55,3.53,4.87l-2.01,12.59,7.57,1.21c1.61.26,2.71,1.78,2.46,3.39-.13.81-.59,1.53-1.27,1.99Z"/></svg>